%TF.GenerationSoftware,KiCad,Pcbnew,9.0.7*%
%TF.CreationDate,2026-04-26T23:39:45-05:00*%
%TF.ProjectId,BPS-Leader,4250532d-4c65-4616-9465-722e6b696361,rev?*%
%TF.SameCoordinates,Original*%
%TF.FileFunction,Paste,Top*%
%TF.FilePolarity,Positive*%
%FSLAX46Y46*%
G04 Gerber Fmt 4.6, Leading zero omitted, Abs format (unit mm)*
G04 Created by KiCad (PCBNEW 9.0.7) date 2026-04-26 23:39:45*
%MOMM*%
%LPD*%
G01*
G04 APERTURE LIST*
G04 Aperture macros list*
%AMRoundRect*
0 Rectangle with rounded corners*
0 $1 Rounding radius*
0 $2 $3 $4 $5 $6 $7 $8 $9 X,Y pos of 4 corners*
0 Add a 4 corners polygon primitive as box body*
4,1,4,$2,$3,$4,$5,$6,$7,$8,$9,$2,$3,0*
0 Add four circle primitives for the rounded corners*
1,1,$1+$1,$2,$3*
1,1,$1+$1,$4,$5*
1,1,$1+$1,$6,$7*
1,1,$1+$1,$8,$9*
0 Add four rect primitives between the rounded corners*
20,1,$1+$1,$2,$3,$4,$5,0*
20,1,$1+$1,$4,$5,$6,$7,0*
20,1,$1+$1,$6,$7,$8,$9,0*
20,1,$1+$1,$8,$9,$2,$3,0*%
%AMFreePoly0*
4,1,6,0.725000,-0.725000,-0.725000,-0.725000,-0.725000,0.125000,-0.125000,0.725000,0.725000,0.725000,0.725000,-0.725000,0.725000,-0.725000,$1*%
G04 Aperture macros list end*
%ADD10C,0.010000*%
%ADD11RoundRect,0.200000X0.200000X0.275000X-0.200000X0.275000X-0.200000X-0.275000X0.200000X-0.275000X0*%
%ADD12RoundRect,0.250000X0.300000X-0.300000X0.300000X0.300000X-0.300000X0.300000X-0.300000X-0.300000X0*%
%ADD13RoundRect,0.225000X-0.250000X0.225000X-0.250000X-0.225000X0.250000X-0.225000X0.250000X0.225000X0*%
%ADD14RoundRect,0.200000X-0.200000X-0.275000X0.200000X-0.275000X0.200000X0.275000X-0.200000X0.275000X0*%
%ADD15RoundRect,0.250000X0.250000X0.475000X-0.250000X0.475000X-0.250000X-0.475000X0.250000X-0.475000X0*%
%ADD16RoundRect,0.218750X0.218750X0.256250X-0.218750X0.256250X-0.218750X-0.256250X0.218750X-0.256250X0*%
%ADD17RoundRect,0.250000X-0.250000X-0.475000X0.250000X-0.475000X0.250000X0.475000X-0.250000X0.475000X0*%
%ADD18RoundRect,0.150000X0.150000X-0.587500X0.150000X0.587500X-0.150000X0.587500X-0.150000X-0.587500X0*%
%ADD19RoundRect,0.225000X0.225000X0.250000X-0.225000X0.250000X-0.225000X-0.250000X0.225000X-0.250000X0*%
%ADD20RoundRect,0.250000X2.500000X-1.750000X2.500000X1.750000X-2.500000X1.750000X-2.500000X-1.750000X0*%
%ADD21RoundRect,0.225000X-0.225000X-0.250000X0.225000X-0.250000X0.225000X0.250000X-0.225000X0.250000X0*%
%ADD22RoundRect,0.375000X0.375000X-0.625000X0.375000X0.625000X-0.375000X0.625000X-0.375000X-0.625000X0*%
%ADD23RoundRect,0.500000X1.400000X-0.500000X1.400000X0.500000X-1.400000X0.500000X-1.400000X-0.500000X0*%
%ADD24RoundRect,0.200000X-0.275000X0.200000X-0.275000X-0.200000X0.275000X-0.200000X0.275000X0.200000X0*%
%ADD25RoundRect,0.150000X0.425000X-0.150000X0.425000X0.150000X-0.425000X0.150000X-0.425000X-0.150000X0*%
%ADD26RoundRect,0.075000X0.500000X-0.075000X0.500000X0.075000X-0.500000X0.075000X-0.500000X-0.075000X0*%
%ADD27O,2.100000X1.000000*%
%ADD28O,1.800000X1.000000*%
%ADD29RoundRect,0.250000X-0.300000X-0.300000X0.300000X-0.300000X0.300000X0.300000X-0.300000X0.300000X0*%
%ADD30RoundRect,0.200000X0.275000X-0.200000X0.275000X0.200000X-0.275000X0.200000X-0.275000X-0.200000X0*%
%ADD31R,3.430000X1.530000*%
%ADD32RoundRect,0.225000X0.250000X-0.225000X0.250000X0.225000X-0.250000X0.225000X-0.250000X-0.225000X0*%
%ADD33RoundRect,0.218750X-0.256250X0.218750X-0.256250X-0.218750X0.256250X-0.218750X0.256250X0.218750X0*%
%ADD34RoundRect,0.250000X-0.475000X0.250000X-0.475000X-0.250000X0.475000X-0.250000X0.475000X0.250000X0*%
%ADD35R,1.525000X0.650000*%
%ADD36RoundRect,0.250000X0.475000X-0.250000X0.475000X0.250000X-0.475000X0.250000X-0.475000X-0.250000X0*%
%ADD37RoundRect,0.040000X0.120000X-0.390000X0.120000X0.390000X-0.120000X0.390000X-0.120000X-0.390000X0*%
%ADD38R,0.550000X1.800000*%
%ADD39RoundRect,0.150000X-0.587500X-0.150000X0.587500X-0.150000X0.587500X0.150000X-0.587500X0.150000X0*%
%ADD40R,0.800000X0.400000*%
%ADD41R,0.400000X0.800000*%
%ADD42FreePoly0,0.000000*%
%ADD43R,1.450000X1.450000*%
%ADD44R,0.700000X0.700000*%
%ADD45R,1.890000X1.140000*%
%ADD46RoundRect,0.175000X0.175000X0.325000X-0.175000X0.325000X-0.175000X-0.325000X0.175000X-0.325000X0*%
%ADD47RoundRect,0.150000X0.200000X0.150000X-0.200000X0.150000X-0.200000X-0.150000X0.200000X-0.150000X0*%
%ADD48R,0.500000X0.300000*%
%ADD49RoundRect,0.218750X0.256250X-0.218750X0.256250X0.218750X-0.256250X0.218750X-0.256250X-0.218750X0*%
%ADD50R,0.650000X1.528000*%
%ADD51R,1.000000X1.600000*%
%ADD52R,1.000000X0.750000*%
%ADD53RoundRect,0.225000X-0.225000X-0.375000X0.225000X-0.375000X0.225000X0.375000X-0.225000X0.375000X0*%
%ADD54R,1.300000X0.600000*%
%ADD55RoundRect,0.218750X-0.218750X-0.256250X0.218750X-0.256250X0.218750X0.256250X-0.218750X0.256250X0*%
%ADD56R,0.450000X1.200000*%
%ADD57R,0.950000X0.350000*%
%ADD58R,0.350000X0.950000*%
%ADD59R,2.200000X2.200000*%
G04 APERTURE END LIST*
D10*
%TO.C,U2*%
X141222000Y-68287200D02*
X139702000Y-68287200D01*
X139702000Y-67247200D01*
X141222000Y-67247200D01*
X141222000Y-68287200D01*
G36*
X141222000Y-68287200D02*
G01*
X139702000Y-68287200D01*
X139702000Y-67247200D01*
X141222000Y-67247200D01*
X141222000Y-68287200D01*
G37*
%TD*%
D11*
%TO.C,R18*%
X108876600Y-67868800D03*
X107226600Y-67868800D03*
%TD*%
D12*
%TO.C,D13*%
X96469200Y-116309600D03*
X96469200Y-113509600D03*
%TD*%
D13*
%TO.C,C19*%
X100102388Y-90032300D03*
X100102388Y-91582300D03*
%TD*%
D14*
%TO.C,R4*%
X77521400Y-109595200D03*
X79171400Y-109595200D03*
%TD*%
D15*
%TO.C,C10*%
X160360400Y-64312800D03*
X158460400Y-64312800D03*
%TD*%
D14*
%TO.C,R59*%
X146920200Y-88951500D03*
X148570200Y-88951500D03*
%TD*%
D11*
%TO.C,R34*%
X108535750Y-85042550D03*
X106885750Y-85042550D03*
%TD*%
D16*
%TO.C,D30*%
X154819700Y-90475500D03*
X153244700Y-90475500D03*
%TD*%
D17*
%TO.C,C7*%
X158562000Y-68768768D03*
X160462000Y-68768768D03*
%TD*%
D18*
%TO.C,Q6*%
X91988975Y-87099100D03*
X93888975Y-87099100D03*
X92938975Y-85224100D03*
%TD*%
D16*
%TO.C,D17*%
X154799700Y-105718500D03*
X153224700Y-105718500D03*
%TD*%
D17*
%TO.C,C26*%
X132146000Y-84124800D03*
X134046000Y-84124800D03*
%TD*%
D14*
%TO.C,R57*%
X146920200Y-91999500D03*
X148570200Y-91999500D03*
%TD*%
D19*
%TO.C,C27*%
X130670600Y-83870800D03*
X129120600Y-83870800D03*
%TD*%
D14*
%TO.C,R91*%
X84103000Y-58480000D03*
X85753000Y-58480000D03*
%TD*%
D20*
%TO.C,L1*%
X131470400Y-70747200D03*
X131470400Y-62247200D03*
%TD*%
D21*
%TO.C,C41*%
X98068800Y-109321600D03*
X99618800Y-109321600D03*
%TD*%
D16*
%TO.C,D25*%
X154819700Y-93523500D03*
X153244700Y-93523500D03*
%TD*%
D21*
%TO.C,C5*%
X107278400Y-71000000D03*
X108828400Y-71000000D03*
%TD*%
D22*
%TO.C,U8*%
X158990000Y-61874800D03*
X161290000Y-61874800D03*
D23*
X161290000Y-55574800D03*
D22*
X163590000Y-61874800D03*
%TD*%
D21*
%TO.C,C29*%
X132016200Y-74930000D03*
X133566200Y-74930000D03*
%TD*%
D14*
%TO.C,R3*%
X77521400Y-111068400D03*
X79171400Y-111068400D03*
%TD*%
D24*
%TO.C,R80*%
X93453206Y-101485692D03*
X93453206Y-103135692D03*
%TD*%
D11*
%TO.C,R17*%
X112471200Y-106210600D03*
X110821200Y-106210600D03*
%TD*%
D15*
%TO.C,C33*%
X135656400Y-58978800D03*
X133756400Y-58978800D03*
%TD*%
D25*
%TO.C,J2*%
X169710000Y-63093200D03*
X169710000Y-62293200D03*
D26*
X169710000Y-61143200D03*
X169710000Y-60143200D03*
X169710000Y-59643200D03*
X169710000Y-58643200D03*
D25*
X169710000Y-57493200D03*
X169710000Y-56693200D03*
X169710000Y-56693200D03*
X169710000Y-57493200D03*
D26*
X169710000Y-58143200D03*
X169710000Y-59143200D03*
X169710000Y-60643200D03*
X169710000Y-61643200D03*
D25*
X169710000Y-62293200D03*
X169710000Y-63093200D03*
D27*
X170285000Y-64213200D03*
D28*
X174465000Y-64213200D03*
D27*
X170285000Y-55573200D03*
D28*
X174465000Y-55573200D03*
%TD*%
D29*
%TO.C,D27*%
X127705200Y-74523600D03*
X130505200Y-74523600D03*
%TD*%
D21*
%TO.C,C17*%
X106935750Y-86515750D03*
X108485750Y-86515750D03*
%TD*%
D14*
%TO.C,R2*%
X77521400Y-115538800D03*
X79171400Y-115538800D03*
%TD*%
D19*
%TO.C,C1*%
X79121400Y-112592400D03*
X77571400Y-112592400D03*
%TD*%
D30*
%TO.C,R6*%
X163271200Y-51853500D03*
X163271200Y-50203500D03*
%TD*%
D16*
%TO.C,LV1*%
X152603200Y-63449200D03*
X151028200Y-63449200D03*
%TD*%
D14*
%TO.C,R93*%
X84112600Y-64516000D03*
X85762600Y-64516000D03*
%TD*%
%TO.C,R19*%
X117304950Y-92983950D03*
X118954950Y-92983950D03*
%TD*%
D31*
%TO.C,F4*%
X138480800Y-59008400D03*
X138480800Y-55088400D03*
%TD*%
D21*
%TO.C,C20*%
X110527800Y-70853000D03*
X112077800Y-70853000D03*
%TD*%
D13*
%TO.C,C23*%
X100108006Y-101434092D03*
X100108006Y-102984092D03*
%TD*%
D32*
%TO.C,C22*%
X94971588Y-91702300D03*
X94971588Y-90152300D03*
%TD*%
D11*
%TO.C,R20*%
X118942750Y-85160750D03*
X117292750Y-85160750D03*
%TD*%
D14*
%TO.C,R42*%
X147187200Y-110317300D03*
X148837200Y-110317300D03*
%TD*%
%TO.C,R24*%
X147968200Y-63449200D03*
X149618200Y-63449200D03*
%TD*%
%TO.C,R15*%
X84585000Y-53550000D03*
X86235000Y-53550000D03*
%TD*%
D24*
%TO.C,R44*%
X91974388Y-90102300D03*
X91974388Y-91752300D03*
%TD*%
D33*
%TO.C,5V_Buck1*%
X137617200Y-48602300D03*
X137617200Y-50177300D03*
%TD*%
D14*
%TO.C,R43*%
X147187200Y-108718500D03*
X148837200Y-108718500D03*
%TD*%
%TO.C,R66*%
X98124200Y-63178000D03*
X99774200Y-63178000D03*
%TD*%
%TO.C,R29*%
X117292750Y-82163550D03*
X118942750Y-82163550D03*
%TD*%
D11*
%TO.C,R95*%
X85762600Y-63042800D03*
X84112600Y-63042800D03*
%TD*%
D32*
%TO.C,C28*%
X134670800Y-82410600D03*
X134670800Y-80860600D03*
%TD*%
D16*
%TO.C,D24*%
X154819700Y-95047500D03*
X153244700Y-95047500D03*
%TD*%
D24*
%TO.C,R63*%
X116000000Y-97175000D03*
X116000000Y-98825000D03*
%TD*%
D30*
%TO.C,R1*%
X143764000Y-64946800D03*
X143764000Y-63296800D03*
%TD*%
D19*
%TO.C,C2*%
X79108400Y-114065600D03*
X77558400Y-114065600D03*
%TD*%
D24*
%TO.C,R86*%
X91929206Y-101485692D03*
X91929206Y-103135692D03*
%TD*%
D21*
%TO.C,C15*%
X117342750Y-86633950D03*
X118892750Y-86633950D03*
%TD*%
D34*
%TO.C,C21*%
X119126000Y-69697600D03*
X119126000Y-71597600D03*
%TD*%
D11*
%TO.C,R67*%
X100011400Y-116419800D03*
X98361400Y-116419800D03*
%TD*%
D14*
%TO.C,R62*%
X136291400Y-89967500D03*
X137941400Y-89967500D03*
%TD*%
D19*
%TO.C,C35*%
X137980800Y-96571500D03*
X136430800Y-96571500D03*
%TD*%
D35*
%TO.C,U9*%
X145181400Y-107036300D03*
X145181400Y-105766300D03*
X145181400Y-104496300D03*
X145181400Y-103226300D03*
X145181400Y-101956300D03*
X145181400Y-100686300D03*
X145181400Y-99416300D03*
X145181400Y-98146300D03*
X139757400Y-98146300D03*
X139757400Y-99416300D03*
X139757400Y-100686300D03*
X139757400Y-101956300D03*
X139757400Y-103226300D03*
X139757400Y-104496300D03*
X139757400Y-105766300D03*
X139757400Y-107036300D03*
%TD*%
D24*
%TO.C,R39*%
X81950000Y-77435000D03*
X81950000Y-79085000D03*
%TD*%
D14*
%TO.C,R14*%
X107226600Y-66344800D03*
X108876600Y-66344800D03*
%TD*%
D36*
%TO.C,C11*%
X142189200Y-52766000D03*
X142189200Y-50866000D03*
%TD*%
D14*
%TO.C,R27*%
X147917200Y-67970400D03*
X149567200Y-67970400D03*
%TD*%
D37*
%TO.C,U2*%
X139487000Y-69202200D03*
X140137000Y-69202200D03*
X140787000Y-69202200D03*
X141437000Y-69202200D03*
X141437000Y-66332200D03*
X140787000Y-66332200D03*
X140137000Y-66332200D03*
X139487000Y-66332200D03*
%TD*%
D38*
%TO.C,J1*%
X112804489Y-109873598D03*
X112804490Y-114173539D03*
X112004490Y-109873539D03*
X112004490Y-114173600D03*
X111204490Y-109873539D03*
X111204489Y-114173600D03*
X110404490Y-109873539D03*
X110404491Y-114173600D03*
X109604490Y-109873539D03*
X109604490Y-114173600D03*
X108804490Y-109873539D03*
X108804492Y-114173600D03*
X108004490Y-109873539D03*
X108004491Y-114173600D03*
X107204490Y-109873539D03*
X107204490Y-114173600D03*
X106404491Y-109873598D03*
X106404491Y-114173600D03*
X105604491Y-109873598D03*
X105604491Y-114173600D03*
X104804492Y-109873598D03*
X104804492Y-114173600D03*
X104004491Y-109873598D03*
X104004491Y-114173600D03*
X128558467Y-109923598D03*
X128558467Y-114223600D03*
X127758468Y-109923598D03*
X127758468Y-114223600D03*
X126958467Y-109923598D03*
X126958467Y-114223600D03*
X126158469Y-109923598D03*
X126158469Y-114223600D03*
X125358468Y-109923598D03*
X125358468Y-114223600D03*
X124558470Y-109923598D03*
X124558470Y-114223600D03*
X123758469Y-109923598D03*
X123758469Y-114223600D03*
X122958468Y-109923598D03*
X122958468Y-114223600D03*
X122158469Y-109923598D03*
X122158469Y-114223600D03*
X121358469Y-109923598D03*
X121358469Y-114223600D03*
X120558470Y-109923598D03*
X120558470Y-114223600D03*
X119758469Y-109923598D03*
X119758469Y-114223600D03*
%TD*%
D14*
%TO.C,R69*%
X91021400Y-63500000D03*
X92671400Y-63500000D03*
%TD*%
D32*
%TO.C,C36*%
X113310400Y-103239400D03*
X113310400Y-101689400D03*
%TD*%
D39*
%TO.C,Q4*%
X111650050Y-83570450D03*
X111650050Y-85470450D03*
X113525050Y-84520450D03*
%TD*%
D40*
%TO.C,U1*%
X144395000Y-48585000D03*
X144395000Y-49385000D03*
X144395000Y-50185000D03*
X144395000Y-50985000D03*
X144395000Y-51785000D03*
X144395000Y-52585000D03*
X144395000Y-53385000D03*
X144395000Y-54185000D03*
X144395000Y-54985000D03*
X144395000Y-55785000D03*
X144395000Y-56585000D03*
D41*
X145495000Y-57485000D03*
X146295000Y-57485000D03*
X147095000Y-57485000D03*
X147895000Y-57485000D03*
X148695000Y-57485000D03*
X149495000Y-57485000D03*
X150295000Y-57485000D03*
X151095000Y-57485000D03*
X151895000Y-57485000D03*
X152695000Y-57485000D03*
X153495000Y-57485000D03*
X154295000Y-57485000D03*
X155095000Y-57485000D03*
D40*
X156195000Y-56585000D03*
X156195000Y-55785000D03*
X156195000Y-54985000D03*
X156195000Y-54185000D03*
X156195000Y-53385000D03*
X156195000Y-52585000D03*
X156195000Y-51785000D03*
X156195000Y-50985000D03*
X156195000Y-50185000D03*
X156195000Y-49385000D03*
X156195000Y-48585000D03*
D41*
X155095000Y-47685000D03*
X154295000Y-47685000D03*
X153495000Y-47685000D03*
X152695000Y-47685000D03*
X151895000Y-47685000D03*
X151095000Y-47685000D03*
X150295000Y-47685000D03*
X149495000Y-47685000D03*
X148695000Y-47685000D03*
X147895000Y-47685000D03*
X147095000Y-47685000D03*
X146295000Y-47685000D03*
X145495000Y-47685000D03*
D42*
X148320000Y-50610000D03*
D43*
X148320000Y-52585000D03*
X148320000Y-54560000D03*
X150295000Y-50610000D03*
X150295000Y-52585000D03*
X150295000Y-54560000D03*
X152270000Y-50610000D03*
X152270000Y-52585000D03*
X152270000Y-54560000D03*
D44*
X156245000Y-47635000D03*
X156245000Y-57535000D03*
X144345000Y-57535000D03*
X144345000Y-47635000D03*
%TD*%
D16*
%TO.C,ESTOP2*%
X92633900Y-64973200D03*
X91058900Y-64973200D03*
%TD*%
%TO.C,D14*%
X154799700Y-110218500D03*
X153224700Y-110218500D03*
%TD*%
%TO.C,D19*%
X154799700Y-102718500D03*
X153224700Y-102718500D03*
%TD*%
%TO.C,D15*%
X154799700Y-108718500D03*
X153224700Y-108718500D03*
%TD*%
D24*
%TO.C,R41*%
X93447588Y-90102300D03*
X93447588Y-91752300D03*
%TD*%
D16*
%TO.C,ESTOP1*%
X92624300Y-58937200D03*
X91049300Y-58937200D03*
%TD*%
D45*
%TO.C,D10*%
X116230400Y-66632400D03*
X116230400Y-70832400D03*
%TD*%
D46*
%TO.C,D2*%
X165236400Y-65621600D03*
D47*
X165236400Y-63921600D03*
X163236400Y-63921600D03*
X163236400Y-65821600D03*
%TD*%
D14*
%TO.C,R31*%
X79807400Y-108122000D03*
X81457400Y-108122000D03*
%TD*%
D34*
%TO.C,C13*%
X156819600Y-66918800D03*
X156819600Y-68818800D03*
%TD*%
D30*
%TO.C,R23*%
X163372800Y-72961000D03*
X163372800Y-71311000D03*
%TD*%
D16*
%TO.C,D20*%
X154819700Y-101143500D03*
X153244700Y-101143500D03*
%TD*%
D14*
%TO.C,R60*%
X146920200Y-87427500D03*
X148570200Y-87427500D03*
%TD*%
D17*
%TO.C,C32*%
X130271600Y-58978800D03*
X132171600Y-58978800D03*
%TD*%
D14*
%TO.C,R28*%
X107277400Y-69392800D03*
X108927400Y-69392800D03*
%TD*%
D32*
%TO.C,C30*%
X127609600Y-81648600D03*
X127609600Y-80098600D03*
%TD*%
D19*
%TO.C,C4*%
X105775000Y-71500000D03*
X104225000Y-71500000D03*
%TD*%
D30*
%TO.C,R75*%
X168250000Y-71665000D03*
X168250000Y-70015000D03*
%TD*%
D16*
%TO.C,LV4*%
X152552200Y-67970400D03*
X150977200Y-67970400D03*
%TD*%
D36*
%TO.C,C37*%
X119126000Y-68158400D03*
X119126000Y-66258400D03*
%TD*%
D19*
%TO.C,C24*%
X137967800Y-102159500D03*
X136417800Y-102159500D03*
%TD*%
D16*
%TO.C,LV3*%
X152590800Y-66413400D03*
X151015800Y-66413400D03*
%TD*%
D48*
%TO.C,U12*%
X110680000Y-102559400D03*
X110680000Y-103359400D03*
X112080000Y-103359400D03*
X112080000Y-102559400D03*
%TD*%
D30*
%TO.C,R78*%
X82050000Y-85095000D03*
X82050000Y-83445000D03*
%TD*%
D14*
%TO.C,R94*%
X84103000Y-70453600D03*
X85753000Y-70453600D03*
%TD*%
%TO.C,R83*%
X119380500Y-64541100D03*
X121030500Y-64541100D03*
%TD*%
D30*
%TO.C,R10*%
X159031259Y-53570888D03*
X159031259Y-51920888D03*
%TD*%
%TO.C,R9*%
X139141200Y-72199000D03*
X139141200Y-70549000D03*
%TD*%
D49*
%TO.C,D33*%
X83540000Y-84997500D03*
X83540000Y-83422500D03*
%TD*%
D32*
%TO.C,C39*%
X94977206Y-103085692D03*
X94977206Y-101535692D03*
%TD*%
D33*
%TO.C,D3*%
X163271200Y-47243800D03*
X163271200Y-48818800D03*
%TD*%
D14*
%TO.C,R53*%
X146920200Y-98095500D03*
X148570200Y-98095500D03*
%TD*%
D33*
%TO.C,D11*%
X166319200Y-47243800D03*
X166319200Y-48818800D03*
%TD*%
D35*
%TO.C,U10*%
X145201000Y-96444500D03*
X145201000Y-95174500D03*
X145201000Y-93904500D03*
X145201000Y-92634500D03*
X145201000Y-91364500D03*
X145201000Y-90094500D03*
X145201000Y-88824500D03*
X145201000Y-87554500D03*
X139777000Y-87554500D03*
X139777000Y-88824500D03*
X139777000Y-90094500D03*
X139777000Y-91364500D03*
X139777000Y-92634500D03*
X139777000Y-93904500D03*
X139777000Y-95174500D03*
X139777000Y-96444500D03*
%TD*%
D32*
%TO.C,C8*%
X140258800Y-64579800D03*
X140258800Y-63029800D03*
%TD*%
D14*
%TO.C,R65*%
X134607800Y-79400400D03*
X136257800Y-79400400D03*
%TD*%
D11*
%TO.C,R21*%
X118942750Y-83687550D03*
X117292750Y-83687550D03*
%TD*%
D14*
%TO.C,R37*%
X106885750Y-82096150D03*
X108535750Y-82096150D03*
%TD*%
D32*
%TO.C,C3*%
X113792000Y-67881800D03*
X113792000Y-66331800D03*
%TD*%
D14*
%TO.C,R25*%
X147968200Y-64922400D03*
X149618200Y-64922400D03*
%TD*%
D19*
%TO.C,C14*%
X118892750Y-91510750D03*
X117342750Y-91510750D03*
%TD*%
D24*
%TO.C,R72*%
X117500000Y-97175000D03*
X117500000Y-98825000D03*
%TD*%
D14*
%TO.C,R70*%
X90961000Y-69539200D03*
X92611000Y-69539200D03*
%TD*%
D50*
%TO.C,U11*%
X129260600Y-82111400D03*
X130530600Y-82111400D03*
X131800600Y-82111400D03*
X133070600Y-82111400D03*
X133070600Y-76689400D03*
X131800600Y-76689400D03*
X130530600Y-76689400D03*
X129260600Y-76689400D03*
%TD*%
D18*
%TO.C,Q9*%
X96699888Y-91287600D03*
X98599888Y-91287600D03*
X97649888Y-89412600D03*
%TD*%
D16*
%TO.C,ESTOP3*%
X92573500Y-71063200D03*
X90998500Y-71063200D03*
%TD*%
%TO.C,D23*%
X154819700Y-96571500D03*
X153244700Y-96571500D03*
%TD*%
D11*
%TO.C,R35*%
X85740800Y-57006800D03*
X84090800Y-57006800D03*
%TD*%
D51*
%TO.C,SW2*%
X157863600Y-73227800D03*
X159613600Y-70927800D03*
X161363600Y-73227800D03*
%TD*%
D14*
%TO.C,R58*%
X146920200Y-90475500D03*
X148570200Y-90475500D03*
%TD*%
D11*
%TO.C,R16*%
X112459000Y-104686600D03*
X110809000Y-104686600D03*
%TD*%
D14*
%TO.C,R55*%
X146920200Y-95047500D03*
X148570200Y-95047500D03*
%TD*%
D16*
%TO.C,D21*%
X154819700Y-99619500D03*
X153244700Y-99619500D03*
%TD*%
D39*
%TO.C,Q3*%
X117762150Y-88107150D03*
X117762150Y-90007150D03*
X119637150Y-89057150D03*
%TD*%
D15*
%TO.C,C31*%
X128681600Y-58978800D03*
X126781600Y-58978800D03*
%TD*%
D49*
%TO.C,D34*%
X83520000Y-79007500D03*
X83520000Y-77432500D03*
%TD*%
D13*
%TO.C,C18*%
X152095200Y-72618800D03*
X152095200Y-74168800D03*
%TD*%
D14*
%TO.C,R50*%
X147187200Y-101218500D03*
X148837200Y-101218500D03*
%TD*%
D30*
%TO.C,R84*%
X81343600Y-116770200D03*
X81343600Y-115120200D03*
%TD*%
D24*
%TO.C,R64*%
X134670800Y-76340200D03*
X134670800Y-77990200D03*
%TD*%
D21*
%TO.C,C40*%
X98424400Y-114946600D03*
X99974400Y-114946600D03*
%TD*%
D49*
%TO.C,D31*%
X73300000Y-57087500D03*
X73300000Y-55512500D03*
%TD*%
D11*
%TO.C,R30*%
X112802950Y-86972950D03*
X111152950Y-86972950D03*
%TD*%
D30*
%TO.C,R51*%
X137617200Y-53212000D03*
X137617200Y-51562000D03*
%TD*%
D14*
%TO.C,R49*%
X147187200Y-102718500D03*
X148837200Y-102718500D03*
%TD*%
D39*
%TO.C,Q5*%
X107355150Y-88273350D03*
X107355150Y-90173350D03*
X109230150Y-89223350D03*
%TD*%
D14*
%TO.C,R54*%
X146920200Y-96595500D03*
X148570200Y-96595500D03*
%TD*%
%TO.C,R52*%
X147187200Y-99718500D03*
X148837200Y-99718500D03*
%TD*%
D24*
%TO.C,R32*%
X74820000Y-55465000D03*
X74820000Y-57115000D03*
%TD*%
%TO.C,R77*%
X95240606Y-96913692D03*
X95240606Y-98563692D03*
%TD*%
D52*
%TO.C,SW1*%
X145360000Y-72999600D03*
X149860000Y-72999600D03*
X145360000Y-70849600D03*
X149860000Y-70849600D03*
%TD*%
D19*
%TO.C,C38*%
X117322900Y-64845900D03*
X115772900Y-64845900D03*
%TD*%
D16*
%TO.C,D29*%
X154819700Y-87427500D03*
X153244700Y-87427500D03*
%TD*%
D53*
%TO.C,D1*%
X158522400Y-66635168D03*
X161822400Y-66635168D03*
%TD*%
D54*
%TO.C,Q7*%
X87350000Y-63102800D03*
X87350000Y-65002800D03*
X89450000Y-64052800D03*
%TD*%
D14*
%TO.C,R13*%
X82804600Y-108122000D03*
X84454600Y-108122000D03*
%TD*%
D18*
%TO.C,Q14*%
X96704406Y-102717092D03*
X98604406Y-102717092D03*
X97654406Y-100842092D03*
%TD*%
D30*
%TO.C,R7*%
X166319200Y-51853500D03*
X166319200Y-50203500D03*
%TD*%
D54*
%TO.C,Q8*%
X87300000Y-57050000D03*
X87300000Y-58950000D03*
X89400000Y-58000000D03*
%TD*%
D16*
%TO.C,D18*%
X154799700Y-104218500D03*
X153224700Y-104218500D03*
%TD*%
%TO.C,D26*%
X154819700Y-91999500D03*
X153244700Y-91999500D03*
%TD*%
D18*
%TO.C,Q11*%
X98047400Y-61418100D03*
X99947400Y-61418100D03*
X98997400Y-59543100D03*
%TD*%
D14*
%TO.C,R48*%
X147187200Y-104218500D03*
X148837200Y-104218500D03*
%TD*%
%TO.C,R46*%
X147187200Y-107218500D03*
X148837200Y-107218500D03*
%TD*%
D49*
%TO.C,LVPWR1*%
X120954800Y-71501101D03*
X120954800Y-69926099D03*
%TD*%
D16*
%TO.C,D16*%
X154799700Y-107218500D03*
X153224700Y-107218500D03*
%TD*%
D14*
%TO.C,R56*%
X146920200Y-93523500D03*
X148570200Y-93523500D03*
%TD*%
D32*
%TO.C,C12*%
X142240000Y-64617600D03*
X142240000Y-63067600D03*
%TD*%
D19*
%TO.C,C25*%
X137894780Y-91466100D03*
X136344780Y-91466100D03*
%TD*%
D14*
%TO.C,R47*%
X147187200Y-105708500D03*
X148837200Y-105708500D03*
%TD*%
D30*
%TO.C,R85*%
X83140000Y-116915000D03*
X83140000Y-115265000D03*
%TD*%
D54*
%TO.C,Q2*%
X87312280Y-69025548D03*
X87312280Y-70925548D03*
X89412280Y-69975548D03*
%TD*%
D18*
%TO.C,Q10*%
X91852206Y-98218992D03*
X93752206Y-98218992D03*
X92802206Y-96343992D03*
%TD*%
D11*
%TO.C,R36*%
X108535750Y-83569350D03*
X106885750Y-83569350D03*
%TD*%
D14*
%TO.C,R71*%
X91011800Y-57464000D03*
X92661800Y-57464000D03*
%TD*%
D19*
%TO.C,C16*%
X108485750Y-91697350D03*
X106935750Y-91697350D03*
%TD*%
D14*
%TO.C,R61*%
X136367800Y-100660900D03*
X138017800Y-100660900D03*
%TD*%
D55*
%TO.C,D32*%
X81612500Y-53500000D03*
X83187500Y-53500000D03*
%TD*%
D30*
%TO.C,R40*%
X101575588Y-91632300D03*
X101575588Y-89982300D03*
%TD*%
D11*
%TO.C,R68*%
X99668800Y-110794800D03*
X98018800Y-110794800D03*
%TD*%
D16*
%TO.C,D28*%
X154819700Y-88951500D03*
X153244700Y-88951500D03*
%TD*%
D13*
%TO.C,C34*%
X138000000Y-107225000D03*
X138000000Y-108775000D03*
%TD*%
D11*
%TO.C,R5*%
X85753000Y-68980400D03*
X84103000Y-68980400D03*
%TD*%
D24*
%TO.C,R22*%
X152095200Y-69583800D03*
X152095200Y-71233800D03*
%TD*%
%TO.C,R8*%
X141478000Y-70549000D03*
X141478000Y-72199000D03*
%TD*%
D30*
%TO.C,R45*%
X90501188Y-91752300D03*
X90501188Y-90102300D03*
%TD*%
D56*
%TO.C,IC1*%
X110327800Y-68966400D03*
X110977800Y-68966400D03*
X111627800Y-68966400D03*
X112277800Y-68966400D03*
X112277800Y-66466400D03*
X111627800Y-66466400D03*
X110977800Y-66466400D03*
X110327800Y-66466400D03*
%TD*%
D30*
%TO.C,R87*%
X90405206Y-103135692D03*
X90405206Y-101485692D03*
%TD*%
D24*
%TO.C,R38*%
X95442275Y-85755200D03*
X95442275Y-87405200D03*
%TD*%
D16*
%TO.C,LV2*%
X152603200Y-64922400D03*
X151028200Y-64922400D03*
%TD*%
D24*
%TO.C,R73*%
X119000000Y-97175000D03*
X119000000Y-98825000D03*
%TD*%
D30*
%TO.C,R79*%
X101581206Y-103034092D03*
X101581206Y-101384092D03*
%TD*%
D32*
%TO.C,C6*%
X138684000Y-64579800D03*
X138684000Y-63029800D03*
%TD*%
D13*
%TO.C,C9*%
X142392400Y-54241400D03*
X142392400Y-55791400D03*
%TD*%
D39*
%TO.C,Q1*%
X121997850Y-83628450D03*
X121997850Y-85528450D03*
X123872850Y-84578450D03*
%TD*%
D11*
%TO.C,R12*%
X123260750Y-87030950D03*
X121610750Y-87030950D03*
%TD*%
D14*
%TO.C,R33*%
X106885750Y-93170550D03*
X108535750Y-93170550D03*
%TD*%
D30*
%TO.C,R11*%
X160504459Y-53570888D03*
X160504459Y-51920888D03*
%TD*%
D12*
%TO.C,D12*%
X96113600Y-110670800D03*
X96113600Y-107870800D03*
%TD*%
D57*
%TO.C,U3*%
X80575000Y-110825000D03*
X80575000Y-111475000D03*
X80575000Y-112125000D03*
X80575000Y-112775000D03*
D58*
X81500000Y-113700000D03*
X82150000Y-113700000D03*
X82800000Y-113700000D03*
X83450000Y-113700000D03*
D57*
X84375000Y-112775000D03*
X84375000Y-112125000D03*
X84375000Y-111475000D03*
X84375000Y-110825000D03*
D58*
X83450000Y-109900000D03*
X82800000Y-109900000D03*
X82150000Y-109900000D03*
X81500000Y-109900000D03*
D59*
X82475000Y-111800000D03*
%TD*%
D16*
%TO.C,D22*%
X154819700Y-98095500D03*
X153244700Y-98095500D03*
%TD*%
D14*
%TO.C,R76*%
X163285000Y-88590000D03*
X164935000Y-88590000D03*
%TD*%
%TO.C,R26*%
X147955800Y-66446400D03*
X149605800Y-66446400D03*
%TD*%
M02*
