M48
; DRILL file {KiCad 9.0.4} date 2025-10-13T21:31:26-0500
; FORMAT={-:-/ absolute / inch / decimal}
; #@! TF.CreationDate,2025-10-13T21:31:26-05:00
; #@! TF.GenerationSoftware,Kicad,Pcbnew,9.0.4
; #@! TF.FileFunction,Plated,1,2,PTH
FMAT,2
INCH
; #@! TA.AperFunction,Plated,PTH,ViaDrill
T1C0.0118
; #@! TA.AperFunction,Plated,PTH,ComponentDrill
T2C0.0236
; #@! TA.AperFunction,Plated,PTH,ComponentDrill
T3C0.0400
; #@! TA.AperFunction,Plated,PTH,ComponentDrill
T4C0.0472
; #@! TA.AperFunction,Plated,PTH,ComponentDrill
T5C0.0630
%
G90
G05
T1
X6.2992Y-4.0055
X6.2992Y-4.1339
X6.2992Y-4.2323
X6.2992Y-4.3307
X6.2992Y-4.4291
X6.2992Y-4.5276
X6.2992Y-4.626
X6.2992Y-4.7244
X6.2992Y-4.8228
X6.2992Y-4.9213
X6.2992Y-5.0197
X6.2992Y-5.1181
X6.2992Y-5.2165
X6.2992Y-5.4134
X6.2992Y-5.5118
X6.3768Y-4.0354
X6.3976Y-2.4606
X6.3976Y-4.9213
X6.3976Y-5.0197
X6.3976Y-5.1181
X6.3976Y-5.2165
X6.3976Y-5.315
X6.3976Y-5.4134
X6.3976Y-5.5118
X6.399Y-5.3809
X6.4942Y-3.8889
X6.4961Y-2.2631
X6.4961Y-2.3777
X6.4961Y-2.4761
X6.4961Y-2.6575
X6.4961Y-4.9213
X6.4961Y-5.0197
X6.4961Y-5.1181
X6.4961Y-5.2165
X6.4961Y-5.315
X6.4961Y-5.4134
X6.4961Y-5.5118
X6.5087Y-2.752
X6.5455Y-5.6362
X6.5544Y-3.9848
X6.5544Y-4.1608
X6.5544Y-4.3368
X6.5544Y-4.3948
X6.5544Y-4.4568
X6.5544Y-4.6328
X6.5544Y-4.8088
X6.5544Y-4.8668
X6.5564Y-4.0448
X6.5564Y-4.1028
X6.5564Y-4.2208
X6.5564Y-4.2788
X6.5564Y-4.5168
X6.5564Y-4.5748
X6.5564Y-4.6928
X6.5564Y-4.7508
X6.5722Y-5.4056
X6.5797Y-2.5581
X6.5797Y-2.6565
X6.5797Y-2.7411
X6.5797Y-2.8396
X6.5926Y-3.8889
X6.5945Y-2.2631
X6.5945Y-2.3777
X6.5945Y-2.4761
X6.5945Y-3.8386
X6.5945Y-4.9213
X6.5945Y-5.0197
X6.6045Y-5.6528
X6.6093Y-3.4785
X6.6427Y-5.3926
X6.6512Y-5.1724
X6.6587Y-3.0972
X6.6588Y-3.187
X6.6911Y-3.8889
X6.6929Y-2.2638
X6.6929Y-2.3777
X6.6929Y-2.4761
X6.6929Y-4.9213
X6.6929Y-5.0197
X6.7004Y-5.1768
X6.7008Y-5.1056
X6.7047Y-3.6638
X6.73Y-2.9452
X6.734Y-3.676
X6.739Y-5.3387
X6.7549Y-5.4524
X6.7586Y-3.6961
X6.7638Y-2.9476
X6.797Y-2.9462
X6.8212Y-5.5177
X6.8215Y-5.326
X6.8295Y-5.1866
X6.8337Y-3.5499
X6.8571Y-5.287
X6.8593Y-3.5735
X6.8677Y-5.5547
X6.9084Y-4.3448
X6.9084Y-4.8128
X6.915Y-4.8914
X6.9572Y-5.4843
X6.9582Y-5.5607
X6.9616Y-5.2721
X6.9889Y-3.6955
X7.0108Y-3.6729
X7.0157Y-5.2031
X7.0173Y-5.5241
X7.0173Y-5.6616
X7.0207Y-5.3376
X7.0299Y-5.2727
X7.0334Y-4.0571
X7.0343Y-2.6126
X7.0382Y-4.9801
X7.05Y-4.0238
X7.0579Y-3.7697
X7.0592Y-5.2432
X7.0594Y-5.4179
X7.0605Y-3.7369
X7.0637Y-5.477
X7.0657Y-2.6114
X7.0758Y-3.9452
X7.0758Y-3.98
X7.0758Y-4.0955
X7.0758Y-4.1949
X7.0758Y-4.2264
X7.0758Y-4.4012
X7.0927Y-3.7103
X7.1008Y-4.8377
X7.1089Y-5.192
X7.1254Y-4.813
X7.1295Y-3.7103
X7.1425Y-5.4114
X7.1519Y-5.3181
X7.1523Y-4.9843
X7.1567Y-3.6374
X7.1568Y-5.4701
X7.1571Y-3.6835
X7.1614Y-3.8083
X7.1632Y-3.8476
X7.1765Y-4.6998
X7.1951Y-4.9067
X7.1961Y-3.6374
X7.1965Y-3.6835
X7.2008Y-3.8083
X7.2011Y-5.2305
X7.2011Y-4.4063
X7.2024Y-3.8476
X7.2095Y-3.0993
X7.2211Y-3.2439
X7.2255Y-3.3043
X7.2259Y-4.4882
X7.2259Y-4.5648
X7.2264Y-4.7156
X7.228Y-5.1415
X7.2316Y-5.2663
X7.2317Y-4.0694
X7.2354Y-3.6374
X7.2358Y-3.6835
X7.2372Y-3.1155
X7.2402Y-3.8083
X7.2415Y-3.8476
X7.2456Y-5.3154
X7.2473Y-5.0913
X7.2505Y-4.3142
X7.2511Y-4.6335
X7.2711Y-4.0694
X7.2716Y-3.5063
X7.2748Y-3.6374
X7.2751Y-4.4882
X7.2751Y-4.5374
X7.2752Y-3.6835
X7.278Y-4.7173
X7.2795Y-3.8083
X7.2807Y-3.8476
X7.2837Y-3.1387
X7.2866Y-5.4427
X7.3142Y-3.6374
X7.3146Y-3.6835
X7.3189Y-3.8083
X7.3199Y-3.8476
X7.3236Y-5.2858
X7.3238Y-5.3456
X7.3464Y-2.5064
X7.3637Y-5.1949
X7.374Y-5.1539
X7.3799Y-2.2156
X7.4145Y-2.7659
X7.4276Y-3.88
X7.4281Y-3.7323
X7.4281Y-3.7638
X7.4459Y-2.7685
X7.4513Y-4.1076
X7.4544Y-5.4027
X7.4577Y-4.5593
X7.4591Y-4.074
X7.4705Y-2.9968
X7.4754Y-3.7461
X7.4803Y-4.9288
X7.4803Y-5.0197
X7.4803Y-5.1181
X7.4803Y-5.2165
X7.483Y-3.0641
X7.4963Y-2.4752
X7.51Y-3.046
X7.516Y-4.8364
X7.5185Y-2.9968
X7.522Y-4.3059
X7.5238Y-4.8669
X7.5238Y-4.8984
X7.5245Y-5.3979
X7.5382Y-3.1744
X7.5524Y-4.365
X7.5535Y-4.3059
X7.5787Y-5.0197
X7.5787Y-5.1181
X7.5807Y-3.0214
X7.5807Y-3.0541
X7.5839Y-4.365
X7.585Y-4.3059
X7.5928Y-5.1818
X7.5946Y-2.6011
X7.6112Y-3.4813
X7.6112Y-3.5148
X7.612Y-4.9982
X7.6154Y-4.365
X7.6165Y-4.3059
X7.6176Y-2.6289
X7.6296Y-5.4515
X7.6299Y-5.2879
X7.6358Y-3.2591
X7.6358Y-5.211
X7.6366Y-5.3469
X7.6458Y-3.0942
X7.6458Y-3.0594
X7.6469Y-4.365
X7.6479Y-3.0214
X7.648Y-4.3059
X7.6511Y-2.9831
X7.6628Y-3.2375
X7.6705Y-5.5288
X7.6788Y-3.3235
X7.6795Y-4.365
X7.6795Y-4.3059
X7.6871Y-2.9495
X7.6919Y-5.1148
X7.6961Y-3.5394
X7.6988Y-2.7904
X7.7012Y-2.843
X7.7108Y-4.3683
X7.711Y-4.3059
X7.7126Y-5.5701
X7.722Y-5.2879
X7.7228Y-5.3469
X7.7323Y-3.4892
X7.735Y-2.7969
X7.7364Y-4.8937
X7.7422Y-4.365
X7.7425Y-4.3059
X7.7558Y-3.244
X7.761Y-4.8626
X7.7698Y-2.7984
X7.7737Y-4.365
X7.774Y-4.3059
X7.7785Y-3.2657
X7.7835Y-3.4892
X7.7835Y-3.5709
X7.795Y-2.9281
X7.8002Y-5.4924
X7.8041Y-3.4636
X7.8059Y-4.365
X7.8063Y-4.3059
X7.8091Y-4.7976
X7.8181Y-2.905
X7.8252Y-3.5482
X7.8277Y-3.1664
X7.8287Y-3.4892
X7.8303Y-5.1072
X7.8374Y-4.365
X7.8375Y-5.5641
X7.8382Y-4.3059
X7.8385Y-5.1387
X7.852Y-5.283
X7.8563Y-3.5886
X7.8573Y-3.1545
X7.8602Y-3.4892
X7.8622Y-4.7181
X7.8866Y-3.4051
X7.8878Y-3.5886
X7.8917Y-3.4892
X7.8921Y-4.6866
X7.8966Y-5.5243
X7.9053Y-5.3406
X7.9054Y-3.9909
X7.9054Y-4.0444
X7.9103Y-3.4288
X7.9222Y-3.0463
X7.9222Y-3.31
X7.9256Y-5.4094
X7.93Y-3.9415
X7.9307Y-3.5482
X7.9394Y-3.3888
X7.9524Y-2.4476
X7.9551Y-3.9224
X7.9552Y-4.3059
X7.9807Y-2.4616
X7.9809Y-3.8953
X7.9809Y-4.1571
X7.9839Y-5.3964
X7.9872Y-3.0659
X7.9894Y-2.8211
X7.9902Y-3.5886
X7.9908Y-4.365
X7.9918Y-4.3059
X8.0118Y-3.4802
X8.0216Y-3.4479
X8.0236Y-4.365
X8.0327Y-3.0096
X8.0409Y-3.6054
X8.0453Y-3.4242
X8.0482Y-2.3989
X8.0482Y-2.3674
X8.0492Y-3.875
X8.0531Y-2.8864
X8.0571Y-5.3865
X8.0585Y-3.3415
X8.061Y-3.7106
X8.0693Y-3.7657
X8.0724Y-4.7565
X8.0744Y-3.6054
X8.0764Y-2.5459
X8.0767Y-3.4323
X8.0881Y-3.9461
X8.1125Y-4.2537
X8.1148Y-2.7598
X8.1303Y-3.0518
X8.161Y-4.0581
X8.161Y-4.0935
X8.1616Y-2.7965
X8.1683Y-2.46
X8.1732Y-3.3337
X8.1742Y-4.3802
X8.1748Y-2.9774
X8.1776Y-2.9423
X8.1804Y-5.4487
X8.1865Y-3.1459
X8.1908Y-3.7349
X8.1984Y-4.1
X8.2035Y-3.102
X8.2053Y-3.2508
X8.2067Y-5.2802
X8.215Y-3.4309
X8.2172Y-4.292
X8.2205Y-5.3393
X8.2211Y-2.6236
X8.2238Y-2.7035
X8.224Y-3.9518
X8.2242Y-2.6697
X8.2307Y-4.0996
X8.2311Y-4.0567
X8.2327Y-4.0126
X8.2364Y-4.238
X8.2381Y-5.2791
X8.2382Y-4.3556
X8.2405Y-4.3927
X8.2417Y-2.8459
X8.2532Y-4.2965
X8.257Y-5.5465
X8.2602Y-4.765
X8.2614Y-5.3551
X8.2618Y-3.7156
X8.2646Y-4.0996
X8.265Y-4.0567
X8.2651Y-3.1712
X8.2667Y-2.46
X8.2677Y-3.3238
X8.2756Y-3.8795
X8.2933Y-3.2933
X8.3061Y-3.3533
X8.3063Y-3.262
X8.316Y-5.5524
X8.3482Y-2.5768
X8.3514Y-2.6535
X8.3524Y-2.6953
X8.3559Y-3.099
X8.3577Y-3.4907
X8.3583Y-2.4531
X8.3583Y-4.672
X8.3616Y-3.3863
X8.3618Y-2.8986
X8.3752Y-5.4834
X8.3766Y-5.5534
X8.3804Y-5.2708
X8.3945Y-2.4809
X8.3954Y-4.2845
X8.4045Y-3.7923
X8.4114Y-4.3556
X8.4301Y-4.2837
X8.4329Y-2.8215
X8.4356Y-5.5247
X8.4383Y-5.33
X8.4429Y-4.3556
X8.4543Y-2.5282
X8.4587Y-2.4784
X8.4646Y-2.3622
X8.4701Y-4.0915
X8.4756Y-5.3705
X8.4825Y-5.4292
X8.4831Y-4.2425
X8.4831Y-4.2815
X8.5091Y-4.0945
X8.5238Y-3.4622
X8.5264Y-5.4034
X8.5311Y-4.2811
X8.5396Y-2.6016
X8.541Y-4.5686
X8.5467Y-4.1028
X8.55Y-2.7033
X8.5538Y-4.025
X8.563Y-2.3622
X8.563Y-3.7402
X8.563Y-3.8386
X8.5706Y-3.4146
X8.5712Y-3.4882
X8.5732Y-2.6806
X8.5752Y-2.7222
X8.5788Y-4.4378
X8.5788Y-4.4769
X8.5811Y-4.7587
X8.5925Y-4.2776
X8.5952Y-5.3939
X8.6002Y-2.6181
X8.6073Y-3.5886
X8.6178Y-4.0999
X8.6327Y-4.4624
X8.6445Y-4.0384
X8.646Y-3.9931
X8.6483Y-4.6522
X8.6554Y-4.6125
X8.6602Y-3.6417
X8.6602Y-3.7402
X8.6602Y-3.8386
X8.6637Y-4.4719
X8.664Y-4.2171
X8.6675Y-2.6693
X8.6718Y-4.759
X8.6756Y-2.5833
X8.6786Y-4.664
X8.6795Y-3.2222
X8.6865Y-2.5054
X8.6891Y-5.5684
X8.6986Y-4.2654
X8.7031Y-4.7105
X8.7051Y-5.2877
X8.7079Y-5.4495
X8.7111Y-2.4808
X8.7165Y-5.3468
X8.722Y-2.6654
X8.7281Y-4.4267
X8.735Y-4.0039
X8.735Y-4.037
X8.735Y-4.0701
X8.735Y-4.1031
X8.735Y-4.1362
X8.7367Y-5.5325
X8.7472Y-3.4872
X8.7479Y-5.4453
X8.7538Y-4.7195
X8.7591Y-3.4146
X8.7664Y-4.9488
X8.7701Y-4.0039
X8.7701Y-4.037
X8.7701Y-4.0701
X8.7701Y-4.1031
X8.7701Y-4.1362
X8.7725Y-5.4818
X8.7732Y-4.2508
X8.7763Y-3.2556
X8.7858Y-5.3468
X8.7862Y-5.2877
X8.7974Y-4.2719
X8.8055Y-2.885
X8.8056Y-4.3559
X8.8087Y-4.1465
X8.8091Y-3.273
X8.8099Y-4.7245
X8.8125Y-4.9459
X8.8134Y-2.5998
X8.8181Y-2.725
X8.8213Y-3.5087
X8.8234Y-5.5293
X8.829Y-2.534
X8.8292Y-2.9087
X8.83Y-4.4782
X8.8339Y-3.2482
X8.8346Y-3.9612
X8.8357Y-4.6491
X8.8411Y-4.5311
X8.8461Y-4.1488
X8.8475Y-4.5924
X8.8515Y-4.2548
X8.8583Y-2.3622
X8.8583Y-3.8386
X8.8634Y-2.7262
X8.8638Y-5.2829
X8.8703Y-2.8752
X8.8807Y-2.6246
X8.8831Y-3.8768
X8.8848Y-4.4633
X8.8882Y-2.7909
X8.8886Y-5.4953
X8.8941Y-4.1784
X8.8945Y-4.2106
X8.8945Y-2.7117
X8.8948Y-2.6641
X8.8957Y-4.1449
X8.8965Y-5.2555
X8.9057Y-5.5601
X8.915Y-3.6004
X8.9173Y-3.9901
X8.9286Y-2.8833
X8.9296Y-3.3627
X8.9302Y-3.4079
X8.9302Y-3.1356
X8.9302Y-3.181
X8.9302Y-3.2264
X8.9302Y-3.2717
X8.9302Y-3.3171
X8.9374Y-5.0579
X8.9394Y-5.0963
X8.9445Y-4.1417
X8.9453Y-4.178
X8.9461Y-4.2094
X8.9499Y-4.5748
X8.9567Y-2.3622
X8.9648Y-2.9335
X8.9648Y-5.5255
X8.9718Y-5.0963
X8.972Y-3.676
X8.972Y-5.0579
X8.9842Y-4.9867
X8.9846Y-4.5899
X8.9866Y-3.4075
X8.9866Y-3.1352
X8.9886Y-4.1791
X8.989Y-4.1394
X8.9933Y-4.2118
X9.0019Y-4.719
X9.0039Y-2.911
X9.0042Y-5.0963
X9.0067Y-5.0579
X9.0071Y-4.4308
X9.0074Y-4.3733
X9.0076Y-4.3217
X9.0173Y-4.893
X9.0188Y-4.8339
X9.0235Y-4.671
X9.0261Y-3.0765
X9.0354Y-5.2205
X9.0366Y-5.0963
X9.0368Y-2.4606
X9.0401Y-4.323
X9.041Y-4.4322
X9.0413Y-4.3747
X9.0413Y-5.0579
X9.0422Y-3.4075
X9.0422Y-3.1352
X9.0453Y-5.372
X9.053Y-4.6221
X9.0689Y-3.4748
X9.0928Y-4.893
X9.0978Y-3.4075
X9.0978Y-3.1352
X9.1Y-3.0069
X9.1007Y-4.8339
X9.101Y-2.788
X9.1035Y-3.4744
X9.1039Y-5.4311
X9.1291Y-2.9949
X9.1334Y-2.6587
X9.1352Y-2.4606
X9.1533Y-3.4075
X9.1534Y-3.1352
X9.182Y-2.9399
X9.2089Y-3.4075
X9.209Y-3.1352
X9.209Y-3.1811
X9.209Y-3.2269
X9.209Y-3.2728
X9.209Y-3.3187
X9.209Y-3.3646
X9.2256Y-5.4402
X9.2445Y-2.6299
X9.2461Y-2.8508
X9.252Y-2.4606
X9.2793Y-2.9453
T3
X6.8001Y-2.2631
X6.8001Y-2.3631
X6.9001Y-2.2631
X6.9001Y-2.3631
X7.0001Y-2.2631
X7.0001Y-2.3631
X7.1001Y-2.2631
X7.1001Y-2.3631
X7.2001Y-2.2631
X7.2001Y-2.3631
X8.6161Y-2.9809
X8.6161Y-3.0809
X8.6161Y-3.1809
X8.6161Y-3.2809
X8.6161Y-3.3809
X8.7161Y-2.9809
X8.7161Y-3.0809
X8.7161Y-3.1809
X8.7161Y-3.2809
X8.7161Y-3.3809
T4
X6.3732Y-3.6886
X6.3732Y-3.787
X6.3795Y-2.639
X6.3795Y-2.7374
X6.3795Y-2.8358
X6.3795Y-2.9343
X6.3837Y-3.1102
X6.3837Y-3.2087
X6.3837Y-3.3071
X6.636Y-5.7162
X6.7344Y-5.7162
X6.8329Y-5.7162
X6.9313Y-5.7162
X7.1956Y-5.7163
X7.294Y-5.7163
X7.4497Y-2.271
X7.4497Y-2.3694
X7.5158Y-5.7168
X7.5481Y-2.271
X7.5481Y-2.3694
X7.6142Y-5.7168
X7.6465Y-2.271
X7.6465Y-2.3694
X7.7127Y-5.7168
X7.7449Y-2.271
X7.7449Y-2.3694
X7.8111Y-5.7168
X7.8434Y-2.271
X7.8434Y-2.3694
X7.9418Y-2.271
X7.9418Y-2.3694
X8.052Y-5.7164
X8.1191Y-2.2746
X8.1504Y-5.7164
X8.2175Y-2.2746
X8.2489Y-5.7164
X8.3159Y-2.2746
X8.3473Y-5.7164
X8.4144Y-2.2746
X8.5835Y-5.7164
X8.5914Y-2.2718
X8.6819Y-5.7164
X8.6898Y-2.2718
X8.7804Y-5.7164
X8.7882Y-2.2718
X8.8788Y-5.7164
X8.8867Y-2.2718
X9.1972Y-5.0755
X9.1972Y-5.1739
X9.198Y-4.703
X9.198Y-4.8014
X9.198Y-4.8998
X9.1999Y-4.042
X9.1999Y-4.1405
X9.2017Y-4.3304
X9.2017Y-4.4288
X9.2017Y-4.5272
T5
X6.7961Y-2.715
X6.7961Y-2.8488
X7.1866Y-2.715
X7.1866Y-2.8488
T2
G00X9.0587Y-2.5679
M15
G01X9.102Y-2.5679
M16
G05
G00X9.0587Y-2.9081
M15
G01X9.102Y-2.9081
M16
G05
G00X9.2291Y-2.5679
M15
G01X9.2606Y-2.5679
M16
G05
G00X9.2291Y-2.9081
M15
G01X9.2606Y-2.9081
M16
G05
M30
