M48
; DRILL file {KiCad 9.0.4} date 2026-01-13T21:53:20-0600
; FORMAT={-:-/ absolute / inch / decimal}
; #@! TF.CreationDate,2026-01-13T21:53:20-06:00
; #@! TF.GenerationSoftware,Kicad,Pcbnew,9.0.4
; #@! TF.FileFunction,Plated,1,2,PTH
FMAT,2
INCH
; #@! TA.AperFunction,Plated,PTH,ViaDrill
T1C0.0118
; #@! TA.AperFunction,Plated,PTH,ComponentDrill
T2C0.0236
; #@! TA.AperFunction,Plated,PTH,ComponentDrill
T3C0.0394
; #@! TA.AperFunction,Plated,PTH,ComponentDrill
T4C0.0400
; #@! TA.AperFunction,Plated,PTH,ComponentDrill
T5C0.0472
; #@! TA.AperFunction,Plated,PTH,ComponentDrill
T6C0.0630
; #@! TA.AperFunction,Plated,PTH,ComponentDrill
T7C0.1260
%
G90
G05
T1
X2.9294Y-3.7294
X2.9359Y-3.8358
X2.9497Y-4.3176
X2.9497Y-3.8
X2.9517Y-3.7071
X2.9693Y-2.2866
X2.9696Y-4.3421
X2.9806Y-4.2438
X3.0Y-2.4236
X3.0094Y-4.6031
X3.0199Y-3.3544
X3.0243Y-3.2098
X3.0264Y-2.2102
X3.0274Y-3.0057
X3.079Y-3.3592
X3.0816Y-4.558
X3.0822Y-4.461
X3.0839Y-2.4941
X3.0865Y-4.3468
X3.1091Y-2.1917
X3.1102Y-4.2292
X3.1201Y-2.3681
X3.1432Y-4.2066
X3.1456Y-3.2717
X3.1575Y-4.2982
X3.1647Y-2.9647
X3.1712Y-3.3096
X3.1821Y-4.3366
X3.19Y-3.3609
X3.2039Y-3.1437
X3.224Y-4.426
X3.2264Y-4.3831
X3.2429Y-2.951
X3.2476Y-4.5697
X3.2638Y-4.4236
X3.2642Y-4.3823
X3.266Y-2.2073
X3.2862Y-4.2306
X3.3022Y-2.2073
X3.3083Y-4.5736
X3.3086Y-2.3489
X3.3106Y-2.5869
X3.3126Y-2.8129
X3.3263Y-3.3295
X3.3307Y-3.5342
X3.3372Y-2.4258
X3.3446Y-2.8209
X3.3484Y-4.1457
X3.3498Y-4.1948
X3.3598Y-2.9906
X3.3697Y-4.5744
X3.3759Y-3.4709
X3.3768Y-2.3429
X3.3816Y-3.829
X3.3941Y-4.3819
X3.3941Y-4.426
X3.3953Y-2.4213
X3.3957Y-3.7789
X3.3961Y-4.4677
X3.4004Y-4.1465
X3.4018Y-4.1956
X3.4094Y-2.1595
X3.4213Y-3.3685
X3.4437Y-4.3839
X3.4437Y-4.428
X3.4457Y-4.4697
X3.4469Y-3.7949
X3.4469Y-3.8392
X3.4488Y-3.4449
X3.4555Y-4.1472
X3.4569Y-4.1964
X3.4589Y-4.2554
X3.5173Y-2.2339
X3.5189Y-4.1484
X3.5198Y-4.194
X3.5209Y-2.7992
X3.521Y-2.4861
X3.521Y-2.6816
X3.524Y-2.435
X3.5394Y-3.2488
X3.5709Y-4.1492
X3.5718Y-4.1948
X3.5906Y-2.1614
X3.6098Y-2.361
X3.6154Y-2.5953
X3.621Y-3.5759
X3.626Y-4.15
X3.6269Y-4.1956
X3.6323Y-3.3808
X3.6378Y-3.2488
X3.6399Y-3.512
X3.6476Y-4.03
X3.6536Y-3.8645
X3.6579Y-3.4282
X3.663Y-4.5677
X3.6831Y-2.1972
X3.6874Y-2.7984
X3.7044Y-3.5798
X3.7047Y-4.0279
X3.7079Y-3.3742
X3.7128Y-4.5421
X3.7239Y-3.8482
X3.7273Y-2.3318
X3.7276Y-4.5051
X3.7349Y-2.4145
X3.7381Y-4.2459
X3.7402Y-3.0512
X3.7402Y-3.1496
X3.7402Y-3.248
X3.7697Y-2.3059
X3.7823Y-4.3097
X3.8031Y-3.437
X3.8189Y-4.1339
X3.8189Y-3.8374
X3.8346Y-4.5197
X3.8386Y-3.1496
X3.8386Y-3.248
X3.8413Y-2.2898
X3.874Y-3.4843
X3.8741Y-3.8374
X3.8795Y-3.5232
X3.8936Y-2.4553
X3.8953Y-3.9905
X3.8976Y-2.4173
X3.8976Y-4.1339
X3.937Y-3.1496
X3.937Y-3.248
X3.937Y-3.3465
X3.9682Y-3.0376
X3.9698Y-3.5739
X3.972Y-4.6055
X3.9732Y-4.5741
X3.9732Y-4.0244
X3.9764Y-4.1339
X3.98Y-4.26
X3.98Y-4.32
X3.9906Y-2.2762
X3.9913Y-2.3614
X3.9921Y-2.4606
X3.9994Y-3.0334
X4.0157Y-3.7795
X4.0294Y-3.5724
X4.0323Y-3.0376
X4.0354Y-3.1496
X4.0354Y-3.248
X4.0354Y-3.3465
X4.04Y-4.26
X4.04Y-4.32
X4.04Y-4.38
X4.0551Y-4.1339
X4.0604Y-3.1049
X4.0638Y-3.0376
X4.0945Y-3.7795
X4.0945Y-3.8583
X4.1213Y-2.6205
X4.1213Y-2.6638
X4.1213Y-2.7051
X4.1213Y-2.7531
X4.128Y-4.653
X4.1339Y-4.1339
X4.1591Y-2.6205
X4.1591Y-2.6646
X4.1591Y-2.7063
X4.1591Y-2.7528
X4.1732Y-2.185
X4.1732Y-2.2441
X4.1732Y-2.3031
X4.1732Y-2.3622
X4.1732Y-2.4213
X4.1732Y-2.4803
X4.1732Y-3.7795
X4.1732Y-3.8583
X4.1732Y-3.937
X4.1846Y-2.8504
X4.1854Y-2.5862
X4.189Y-4.2706
X4.201Y-3.1797
X4.2079Y-4.0338
X4.2079Y-4.0791
X4.212Y-4.6392
X4.2168Y-4.4194
X4.2233Y-3.1317
X4.2275Y-2.1862
X4.2382Y-3.319
X4.2402Y-3.6407
X4.2406Y-3.3735
X4.25Y-4.6254
X4.252Y-3.7795
X4.252Y-3.8583
X4.252Y-3.937
X4.2746Y-3.5661
X4.28Y-4.578
X4.282Y-4.384
X4.285Y-4.1457
X4.286Y-4.6115
X4.2871Y-4.0115
X4.2925Y-2.1846
X4.3053Y-4.1699
X4.3071Y-3.4843
X4.3135Y-4.384
X4.3204Y-4.0054
X4.3204Y-2.8175
X4.3295Y-4.1921
X4.3307Y-3.1496
X4.3307Y-3.248
X4.3307Y-3.7795
X4.3307Y-3.8583
X4.338Y-2.5795
X4.3484Y-2.1835
X4.3508Y-4.4144
X4.354Y-4.6115
X4.3555Y-4.224
X4.3898Y-2.4016
X4.3898Y-2.4803
X4.394Y-2.5755
X4.394Y-4.5977
X4.3966Y-3.3281
X4.4008Y-4.218
X4.4068Y-3.396
X4.4094Y-3.4567
X4.425Y-4.0015
X4.4291Y-3.5433
X4.4291Y-3.6417
X4.4331Y-3.2075
X4.4488Y-2.4016
X4.4488Y-2.4803
X4.4665Y-3.7007
X4.4665Y-3.7346
X4.48Y-2.7975
X4.4843Y-4.248
X4.5118Y-3.5157
X4.5161Y-4.413
X4.5185Y-2.553
X4.5307Y-3.0703
X4.537Y-3.513
X4.6287Y-1.7811
X4.6315Y-3.1457
X4.6343Y-3.7007
X4.6457Y-2.9134
X4.6457Y-4.0945
X4.6492Y-3.3247
X4.6497Y-3.3791
X4.6497Y-3.6336
X4.6585Y-2.565
X4.6606Y-3.5059
X4.6855Y-3.5548
X4.688Y-2.862
X4.6884Y-3.0935
X4.6902Y-3.7689
X4.704Y-4.38
X4.7244Y-2.9134
X4.7244Y-2.9921
X4.7244Y-3.937
X4.7244Y-4.0354
X4.7244Y-4.1339
X4.7248Y-2.7791
X4.736Y-2.688
X4.768Y-3.0726
X4.7719Y-3.1491
X4.774Y-2.856
X4.7756Y-3.2264
X4.785Y-3.7717
X4.8023Y-2.2517
X4.8031Y-2.3228
X4.8031Y-2.4016
X4.8031Y-2.4803
X4.8031Y-2.5591
X4.8031Y-2.6378
X4.8031Y-2.7165
X4.8031Y-2.9134
X4.8031Y-2.9921
X4.8031Y-3.0709
X4.8032Y-3.3327
X4.8084Y-3.479
X4.8228Y-3.8976
X4.8228Y-3.937
X4.8228Y-4.0354
X4.8228Y-4.1339
X4.8318Y-3.5344
X4.8382Y-3.2331
X4.8582Y-3.3707
X4.8685Y-4.3976
X4.87Y-4.5521
X4.874Y-4.4409
X4.8819Y-2.3228
X4.8819Y-2.4016
X4.8819Y-2.4803
X4.8819Y-2.5591
X4.8819Y-2.6378
X4.8819Y-2.7165
X4.8819Y-2.9134
X4.8819Y-2.9921
X4.8819Y-3.0709
X4.8819Y-3.1496
X4.91Y-4.5542
X4.9217Y-3.752
X4.9251Y-3.7997
X4.927Y-3.838
X4.948Y-4.5542
X4.966Y-4.272
X4.966Y-4.44
X4.9913Y-2.2638
X4.9974Y-4.4422
X4.9975Y-4.2716
X5.018Y-3.937
X5.0197Y-2.4606
X5.0197Y-2.5591
X5.0197Y-2.6575
X5.0343Y-3.4465
X5.0343Y-3.5449
X5.0343Y-3.6433
X5.0343Y-3.7417
X5.0343Y-4.037
X5.0343Y-4.1354
X5.112Y-3.334
X5.1181Y-2.5591
X5.1181Y-2.6575
X5.1181Y-3.4449
X5.1181Y-3.5433
X5.1181Y-3.6417
X5.1181Y-3.7402
X5.1181Y-3.8386
X5.1181Y-3.937
X5.1181Y-4.0354
X5.1181Y-4.1339
X5.1225Y-4.3277
X5.1236Y-4.4433
X5.14Y-3.076
X5.1772Y-2.9035
X5.1976Y-4.5474
X5.2004Y-3.4465
X5.2004Y-3.5449
X5.2004Y-3.6433
X5.2004Y-3.7417
X5.2004Y-3.8402
X5.2004Y-3.9386
X5.2004Y-4.037
X5.2004Y-4.1354
X5.202Y-2.2728
X5.2138Y-4.4315
X5.2165Y-2.5591
X5.2165Y-2.6575
X5.2197Y-4.3268
X5.2249Y-4.5701
X5.2415Y-3.2835
X5.2563Y-4.5839
X5.262Y-3.086
X5.262Y-3.178
X5.265Y-2.2764
X5.3092Y-4.3507
X5.3224Y-4.3217
X5.334Y-3.154
X5.3698Y-3.64
X5.3698Y-3.842
X5.3718Y-4.064
X5.374Y-2.5591
X5.374Y-2.6378
X5.374Y-2.7165
X5.4094Y-4.5492
X5.4126Y-4.3421
X5.4134Y-3.248
X5.418Y-1.872
X5.466Y-2.666
X5.5118Y-3.248
X5.536Y-2.0
X5.5492Y-4.1822
X5.5598Y-3.746
X5.5598Y-3.936
X5.5854Y-4.1327
X5.5904Y-3.9987
X5.592Y-2.668
X5.598Y-2.4475
X5.6051Y-3.912
X5.608Y-2.248
X5.61Y-2.596
X5.6102Y-2.3425
X5.6102Y-3.248
X5.6102Y-3.3828
X5.6157Y-3.4909
X5.6299Y-3.3518
X5.6527Y-3.4488
X5.6527Y-3.8677
X5.6593Y-4.1992
X5.6699Y-3.2823
X5.6699Y-3.316
X5.6778Y-3.832
X5.6815Y-3.395
X5.7002Y-2.732
X5.7042Y-3.3724
X5.726Y-2.47
X5.7284Y-2.3526
X5.7289Y-3.2823
X5.7289Y-3.3268
X5.7455Y-2.732
X5.754Y-2.428
X5.7559Y-1.937
X5.7559Y-1.9961
X5.7559Y-2.0551
X5.7559Y-2.1299
X5.7559Y-2.189
X5.7795Y-2.9173
X5.852Y-2.71
X5.8567Y-4.6244
X5.8882Y-2.228
X5.8886Y-4.6392
X5.9118Y-2.2043
X5.9161Y-4.6594
X5.9843Y-2.9835
X5.9843Y-3.0709
X6.0039Y-3.248
X6.0039Y-3.3465
X6.03Y-2.428
X6.0476Y-2.6784
X6.05Y-2.554
X6.052Y-2.496
X6.052Y-2.5934
X6.06Y-2.454
X6.0639Y-4.1907
X6.0693Y-4.3208
X6.072Y-2.9835
X6.0745Y-2.7364
X6.0787Y-1.937
X6.0787Y-1.9961
X6.0787Y-2.0551
X6.0787Y-2.1299
X6.0787Y-2.189
X6.0881Y-2.6535
X6.0971Y-2.7953
X6.1024Y-3.1496
X6.1024Y-3.248
X6.1024Y-3.3465
X6.1086Y-2.452
X6.1298Y-3.86
X6.1318Y-3.442
X6.1318Y-3.502
X6.1318Y-3.562
X6.1318Y-3.802
X6.1318Y-3.92
X6.1318Y-3.982
X6.1318Y-4.044
X6.1318Y-4.102
X6.1318Y-4.162
X6.1338Y-3.622
X6.1338Y-3.682
X6.1338Y-3.742
X6.1358Y-4.34
X6.142Y-2.4841
X6.1614Y-2.7953
X6.172Y-2.758
X6.1894Y-4.2672
X6.206Y-2.752
X6.2279Y-4.2672
X6.265Y-4.2672
X6.266Y-2.377
X6.29Y-2.588
X6.2921Y-2.624
X6.2965Y-4.2672
X6.3016Y-2.8823
X6.3058Y-2.6534
X6.3091Y-2.2736
X6.3091Y-2.3228
X6.348Y-2.368
X6.3681Y-2.2736
X6.3681Y-2.3228
X6.3922Y-2.5262
X6.41Y-2.554
X6.4134Y-4.2811
X6.4272Y-2.2736
X6.4272Y-2.3228
X6.4402Y-4.3205
X6.4417Y-2.7721
X6.468Y-2.584
X6.5453Y-3.4646
X6.548Y-2.424
X6.624Y-2.8642
T3
X3.2126Y-2.2289
X3.2126Y-2.3289
X3.2126Y-2.7147
X3.2126Y-2.8147
X3.2146Y-2.4709
X3.2146Y-2.5709
X4.9016Y-1.8504
X4.9016Y-1.9504
X6.4764Y-3.5138
X6.4764Y-3.6138
T4
X6.015Y-4.4535
X6.015Y-4.5535
X6.115Y-4.4535
X6.115Y-4.5535
X6.215Y-4.4535
X6.215Y-4.5535
X6.315Y-4.4535
X6.315Y-4.5535
X6.415Y-4.4535
X6.415Y-4.5535
T5
X2.7612Y-3.4646
X2.7612Y-3.563
X2.7612Y-3.6614
X2.7612Y-3.7598
X2.7622Y-2.7539
X2.7622Y-2.8524
X2.7622Y-2.9508
X2.7622Y-3.0492
X2.7622Y-3.1476
X2.7622Y-3.2461
X2.7637Y-2.2524
X2.7637Y-2.3508
X2.7637Y-2.4492
X2.7637Y-2.5476
X2.7638Y-3.9685
X2.7638Y-4.0669
X2.7638Y-4.1654
X2.7638Y-4.2638
X2.8606Y-2.7539
X2.8606Y-2.8524
X2.8606Y-2.9508
X2.8606Y-3.0492
X2.8606Y-3.1476
X2.8606Y-3.2461
X3.0424Y-1.8517
X3.1408Y-1.8517
X3.2392Y-1.8517
X3.3376Y-1.8517
X3.5598Y-1.8484
X3.6583Y-1.8484
X3.8752Y-2.1843
X3.9736Y-2.1843
X4.2421Y-1.854
X4.2421Y-1.9524
X4.3406Y-1.854
X4.3406Y-1.9524
X4.439Y-1.854
X4.439Y-1.9524
X4.5374Y-1.854
X4.5374Y-1.9524
X4.6358Y-1.854
X4.6358Y-1.9524
X4.7343Y-1.854
X4.7343Y-1.9524
X5.0936Y-1.8639
X5.192Y-1.8639
X5.2904Y-1.8639
X6.749Y-2.7953
X6.749Y-2.8937
X6.749Y-2.9921
X6.749Y-3.0906
X6.749Y-3.189
X6.749Y-3.3661
X6.749Y-3.4646
X6.749Y-3.563
X6.749Y-3.6614
X6.749Y-3.7598
X6.7492Y-3.9469
X6.7492Y-4.0453
T6
X3.1138Y-3.6476
X3.1138Y-3.8909
X3.1138Y-4.1343
X3.2913Y-3.7764
X3.2913Y-4.013
X4.2747Y-2.3016
X4.2747Y-2.4354
X4.6653Y-2.3016
X4.6653Y-2.4354
X5.8815Y-3.0382
X5.8815Y-3.172
X6.272Y-3.0382
X6.272Y-3.172
X6.5157Y-2.712
X6.8504Y-2.0571
T7
X2.7362Y-1.811
X2.7362Y-4.5108
X3.5972Y-3.0757
X3.5972Y-4.434
X5.546Y-3.0757
X5.546Y-4.434
X6.7717Y-1.811
X6.7717Y-4.5108
T2
G00X6.6825Y-2.1879
M15
G01X6.7258Y-2.1879
M16
G05
G00X6.6825Y-2.5281
M15
G01X6.7258Y-2.5281
M16
G05
G00X6.853Y-2.1879
M15
G01X6.8844Y-2.1879
M16
G05
G00X6.853Y-2.5281
M15
G01X6.8844Y-2.5281
M16
G05
M30
