%TF.GenerationSoftware,KiCad,Pcbnew,9.0.4*%
%TF.CreationDate,2025-10-13T21:31:25-05:00*%
%TF.ProjectId,BPS-Leader,4250532d-4c65-4616-9465-722e6b696361,rev?*%
%TF.SameCoordinates,Original*%
%TF.FileFunction,Soldermask,Top*%
%TF.FilePolarity,Negative*%
%FSLAX46Y46*%
G04 Gerber Fmt 4.6, Leading zero omitted, Abs format (unit mm)*
G04 Created by KiCad (PCBNEW 9.0.4) date 2025-10-13 21:31:25*
%MOMM*%
%LPD*%
G01*
G04 APERTURE LIST*
G04 Aperture macros list*
%AMRoundRect*
0 Rectangle with rounded corners*
0 $1 Rounding radius*
0 $2 $3 $4 $5 $6 $7 $8 $9 X,Y pos of 4 corners*
0 Add a 4 corners polygon primitive as box body*
4,1,4,$2,$3,$4,$5,$6,$7,$8,$9,$2,$3,0*
0 Add four circle primitives for the rounded corners*
1,1,$1+$1,$2,$3*
1,1,$1+$1,$4,$5*
1,1,$1+$1,$6,$7*
1,1,$1+$1,$8,$9*
0 Add four rect primitives between the rounded corners*
20,1,$1+$1,$2,$3,$4,$5,0*
20,1,$1+$1,$4,$5,$6,$7,0*
20,1,$1+$1,$6,$7,$8,$9,0*
20,1,$1+$1,$8,$9,$2,$3,0*%
%AMFreePoly0*
4,1,22,0.945671,0.830970,1.026777,0.776777,1.080970,0.695671,1.100000,0.600000,1.100000,-0.600000,1.080970,-0.695671,1.026777,-0.776777,0.945671,-0.830970,0.850000,-0.850000,-0.450000,-0.850000,-0.545671,-0.830970,-0.626777,-0.776777,-1.026777,-0.376777,-1.080970,-0.295671,-1.100000,-0.200000,-1.100000,0.600000,-1.080970,0.695671,-1.026777,0.776777,-0.945671,0.830970,-0.850000,0.850000,
0.850000,0.850000,0.945671,0.830970,0.945671,0.830970,$1*%
%AMFreePoly1*
4,1,6,0.725000,-0.725000,-0.725000,-0.725000,-0.725000,0.125000,-0.125000,0.725000,0.725000,0.725000,0.725000,-0.725000,0.725000,-0.725000,$1*%
%AMFreePoly2*
4,1,21,1.545000,0.775000,0.925000,0.775000,0.925000,0.525000,1.545000,0.525000,1.545000,0.125000,0.925000,0.125000,0.925000,-0.125000,1.545000,-0.125000,1.545000,-0.525000,0.925000,-0.525000,0.925000,-0.775000,1.545000,-0.775000,1.545000,-1.175000,0.925000,-1.175000,0.925000,-1.125000,-0.925000,-1.125000,-0.925000,1.125000,0.925000,1.125000,0.925000,1.175000,1.545000,1.175000,
1.545000,0.775000,1.545000,0.775000,$1*%
%AMFreePoly3*
4,1,22,0.945671,0.830970,1.026777,0.776777,1.080970,0.695671,1.100000,0.600000,1.100000,-0.600000,1.080970,-0.695671,1.026777,-0.776777,0.945671,-0.830970,0.850000,-0.850000,-0.596447,-0.850000,-0.692118,-0.830970,-0.773224,-0.776777,-1.026777,-0.523224,-1.080970,-0.442118,-1.100000,-0.346447,-1.100000,0.600000,-1.080970,0.695671,-1.026777,0.776777,-0.945671,0.830970,-0.850000,0.850000,
0.850000,0.850000,0.945671,0.830970,0.945671,0.830970,$1*%
G04 Aperture macros list end*
%ADD10R,1.000000X1.000000*%
%ADD11FreePoly0,0.000000*%
%ADD12O,2.200000X1.700000*%
%ADD13C,2.604000*%
%ADD14R,0.550000X1.800000*%
%ADD15R,0.700000X0.700000*%
%ADD16R,1.450000X1.450000*%
%ADD17FreePoly1,270.000000*%
%ADD18R,0.800000X0.400000*%
%ADD19R,0.400000X0.800000*%
%ADD20RoundRect,0.200000X-0.275000X0.200000X-0.275000X-0.200000X0.275000X-0.200000X0.275000X0.200000X0*%
%ADD21RoundRect,0.218750X0.218750X0.256250X-0.218750X0.256250X-0.218750X-0.256250X0.218750X-0.256250X0*%
%ADD22R,3.150000X2.200000*%
%ADD23RoundRect,0.100000X-0.315000X-0.100000X0.315000X-0.100000X0.315000X0.100000X-0.315000X0.100000X0*%
%ADD24FreePoly2,0.000000*%
%ADD25RoundRect,0.218750X-0.218750X-0.256250X0.218750X-0.256250X0.218750X0.256250X-0.218750X0.256250X0*%
%ADD26RoundRect,0.250000X0.300000X0.300000X-0.300000X0.300000X-0.300000X-0.300000X0.300000X-0.300000X0*%
%ADD27RoundRect,0.225000X-0.250000X0.225000X-0.250000X-0.225000X0.250000X-0.225000X0.250000X0.225000X0*%
%ADD28RoundRect,0.150000X-0.512500X-0.150000X0.512500X-0.150000X0.512500X0.150000X-0.512500X0.150000X0*%
%ADD29RoundRect,0.237500X-0.300000X-0.237500X0.300000X-0.237500X0.300000X0.237500X-0.300000X0.237500X0*%
%ADD30RoundRect,0.200000X0.200000X0.275000X-0.200000X0.275000X-0.200000X-0.275000X0.200000X-0.275000X0*%
%ADD31RoundRect,0.150000X-0.662500X-0.150000X0.662500X-0.150000X0.662500X0.150000X-0.662500X0.150000X0*%
%ADD32RoundRect,0.250000X0.475000X-0.337500X0.475000X0.337500X-0.475000X0.337500X-0.475000X-0.337500X0*%
%ADD33RoundRect,0.250000X0.475000X-0.250000X0.475000X0.250000X-0.475000X0.250000X-0.475000X-0.250000X0*%
%ADD34RoundRect,0.200000X0.275000X-0.200000X0.275000X0.200000X-0.275000X0.200000X-0.275000X-0.200000X0*%
%ADD35RoundRect,0.225000X-0.225000X-0.250000X0.225000X-0.250000X0.225000X0.250000X-0.225000X0.250000X0*%
%ADD36RoundRect,0.225000X0.250000X-0.225000X0.250000X0.225000X-0.250000X0.225000X-0.250000X-0.225000X0*%
%ADD37R,0.830000X0.625000*%
%ADD38RoundRect,0.200000X-0.200000X-0.275000X0.200000X-0.275000X0.200000X0.275000X-0.200000X0.275000X0*%
%ADD39C,1.524000*%
%ADD40RoundRect,0.150000X-0.150000X0.512500X-0.150000X-0.512500X0.150000X-0.512500X0.150000X0.512500X0*%
%ADD41R,0.625000X0.830000*%
%ADD42RoundRect,0.250000X0.600000X-0.600000X0.600000X0.600000X-0.600000X0.600000X-0.600000X-0.600000X0*%
%ADD43C,1.700000*%
%ADD44RoundRect,0.250000X0.600000X-0.850000X0.600000X0.850000X-0.600000X0.850000X-0.600000X-0.850000X0*%
%ADD45O,1.700000X2.200000*%
%ADD46RoundRect,0.237500X-0.237500X0.300000X-0.237500X-0.300000X0.237500X-0.300000X0.237500X0.300000X0*%
%ADD47RoundRect,0.250000X-0.475000X0.337500X-0.475000X-0.337500X0.475000X-0.337500X0.475000X0.337500X0*%
%ADD48RoundRect,0.150000X0.512500X0.150000X-0.512500X0.150000X-0.512500X-0.150000X0.512500X-0.150000X0*%
%ADD49RoundRect,0.218750X-0.256250X0.218750X-0.256250X-0.218750X0.256250X-0.218750X0.256250X0.218750X0*%
%ADD50R,1.970000X1.670000*%
%ADD51RoundRect,0.225000X-0.225000X-0.375000X0.225000X-0.375000X0.225000X0.375000X-0.225000X0.375000X0*%
%ADD52RoundRect,0.250000X-0.600000X0.850000X-0.600000X-0.850000X0.600000X-0.850000X0.600000X0.850000X0*%
%ADD53R,1.200000X0.450000*%
%ADD54R,0.950000X0.350000*%
%ADD55R,0.350000X0.950000*%
%ADD56R,2.200000X2.200000*%
%ADD57RoundRect,0.065500X0.196500X-0.466500X0.196500X0.466500X-0.196500X0.466500X-0.196500X-0.466500X0*%
%ADD58RoundRect,0.040000X0.120000X-0.390000X0.120000X0.390000X-0.120000X0.390000X-0.120000X-0.390000X0*%
%ADD59R,2.400000X1.650000*%
%ADD60RoundRect,0.102000X-0.800000X0.500000X-0.800000X-0.500000X0.800000X-0.500000X0.800000X0.500000X0*%
%ADD61RoundRect,0.250000X0.850000X0.600000X-0.850000X0.600000X-0.850000X-0.600000X0.850000X-0.600000X0*%
%ADD62R,1.528000X0.650000*%
%ADD63RoundRect,0.225000X0.225000X0.250000X-0.225000X0.250000X-0.225000X-0.250000X0.225000X-0.250000X0*%
%ADD64RoundRect,0.175000X-0.175000X-0.325000X0.175000X-0.325000X0.175000X0.325000X-0.175000X0.325000X0*%
%ADD65RoundRect,0.150000X-0.200000X-0.150000X0.200000X-0.150000X0.200000X0.150000X-0.200000X0.150000X0*%
%ADD66R,1.950000X0.650000*%
%ADD67RoundRect,0.237500X0.237500X-0.300000X0.237500X0.300000X-0.237500X0.300000X-0.237500X-0.300000X0*%
%ADD68RoundRect,0.250000X-0.250000X-0.475000X0.250000X-0.475000X0.250000X0.475000X-0.250000X0.475000X0*%
%ADD69FreePoly3,180.000000*%
%ADD70RoundRect,0.150000X0.425000X-0.150000X0.425000X0.150000X-0.425000X0.150000X-0.425000X-0.150000X0*%
%ADD71RoundRect,0.075000X0.500000X-0.075000X0.500000X0.075000X-0.500000X0.075000X-0.500000X-0.075000X0*%
%ADD72O,2.100000X1.000000*%
%ADD73O,1.800000X1.000000*%
%ADD74FreePoly3,0.000000*%
%ADD75RoundRect,0.250000X-0.337500X-0.475000X0.337500X-0.475000X0.337500X0.475000X-0.337500X0.475000X0*%
%ADD76RoundRect,0.250000X0.250000X0.475000X-0.250000X0.475000X-0.250000X-0.475000X0.250000X-0.475000X0*%
%ADD77RoundRect,0.250000X2.500000X-1.750000X2.500000X1.750000X-2.500000X1.750000X-2.500000X-1.750000X0*%
%ADD78RoundRect,0.250000X-0.475000X0.250000X-0.475000X-0.250000X0.475000X-0.250000X0.475000X0.250000X0*%
%ADD79R,1.000000X2.750000*%
%ADD80RoundRect,0.375000X0.625000X0.375000X-0.625000X0.375000X-0.625000X-0.375000X0.625000X-0.375000X0*%
%ADD81RoundRect,0.500000X0.500000X1.400000X-0.500000X1.400000X-0.500000X-1.400000X0.500000X-1.400000X0*%
%ADD82RoundRect,0.237500X-0.250000X-0.237500X0.250000X-0.237500X0.250000X0.237500X-0.250000X0.237500X0*%
%ADD83R,1.530000X3.430000*%
%ADD84FreePoly0,270.000000*%
%ADD85RoundRect,0.237500X0.300000X0.237500X-0.300000X0.237500X-0.300000X-0.237500X0.300000X-0.237500X0*%
%ADD86FreePoly0,180.000000*%
G04 APERTURE END LIST*
D10*
%TO.C,TP30*%
X161130000Y-100340000D03*
%TD*%
D11*
%TO.C,3.3V_In1*%
X233608527Y-128917555D03*
D12*
X233608527Y-131417555D03*
%TD*%
D10*
%TO.C,TP37*%
X229840000Y-135390000D03*
%TD*%
D13*
%TO.C,F2*%
X172620000Y-68960000D03*
X182540000Y-68960000D03*
X172620000Y-72360000D03*
X182540000Y-72360000D03*
%TD*%
D14*
%TO.C,J1*%
X195709931Y-92724998D03*
X195709931Y-97025000D03*
X194909930Y-92724998D03*
X194909930Y-97025000D03*
X194109931Y-92724998D03*
X194109931Y-97025000D03*
X193309931Y-92724998D03*
X193309931Y-97025000D03*
X192509932Y-92724998D03*
X192509932Y-97025000D03*
X191709931Y-92724998D03*
X191709931Y-97025000D03*
X190909930Y-92724998D03*
X190909930Y-97025000D03*
X190109932Y-92724998D03*
X190109932Y-97025000D03*
X189309931Y-92724998D03*
X189309931Y-97025000D03*
X188509933Y-92724998D03*
X188509933Y-97025000D03*
X187709932Y-92724998D03*
X187709932Y-97025000D03*
X186909933Y-92724998D03*
X186909933Y-97025000D03*
X211463909Y-92774998D03*
X211463909Y-97075000D03*
X210663908Y-92774998D03*
X210663908Y-97075000D03*
X209863909Y-92774998D03*
X209863909Y-97075000D03*
X209063909Y-92774998D03*
X209063909Y-97075000D03*
X208263910Y-92774998D03*
X208263910Y-97075059D03*
X207463909Y-92774998D03*
X207463910Y-97075059D03*
X206663908Y-92774998D03*
X206663910Y-97075059D03*
X205863910Y-92774998D03*
X205863910Y-97075059D03*
X205063909Y-92774998D03*
X205063910Y-97075059D03*
X204263911Y-92774998D03*
X204263910Y-97075059D03*
X203463910Y-92774998D03*
X203463910Y-97075059D03*
X202663910Y-92775059D03*
X202663911Y-97075000D03*
%TD*%
D15*
%TO.C,U1*%
X235295000Y-77200000D03*
X225395000Y-77200000D03*
X225395000Y-89100000D03*
X235295000Y-89100000D03*
D16*
X228370000Y-85125000D03*
X230345000Y-85125000D03*
X232320000Y-85125000D03*
X228370000Y-83150000D03*
X230345000Y-83150000D03*
X232320000Y-83150000D03*
X228370000Y-81175000D03*
X230345000Y-81175000D03*
D17*
X232320000Y-81175000D03*
D18*
X235245000Y-78350000D03*
X235245000Y-79150000D03*
X235245000Y-79950000D03*
X235245000Y-80750000D03*
X235245000Y-81550000D03*
X235245000Y-82350000D03*
X235245000Y-83150000D03*
X235245000Y-83950000D03*
X235245000Y-84750000D03*
X235245000Y-85550000D03*
X235245000Y-86350000D03*
X235245000Y-87150000D03*
X235245000Y-87950000D03*
D19*
X234345000Y-89050000D03*
X233545000Y-89050000D03*
X232745000Y-89050000D03*
X231945000Y-89050000D03*
X231145000Y-89050000D03*
X230345000Y-89050000D03*
X229545000Y-89050000D03*
X228745000Y-89050000D03*
X227945000Y-89050000D03*
X227145000Y-89050000D03*
X226345000Y-89050000D03*
D18*
X225445000Y-87950000D03*
X225445000Y-87150000D03*
X225445000Y-86350000D03*
X225445000Y-85550000D03*
X225445000Y-84750000D03*
X225445000Y-83950000D03*
X225445000Y-83150000D03*
X225445000Y-82350000D03*
X225445000Y-81550000D03*
X225445000Y-80750000D03*
X225445000Y-79950000D03*
X225445000Y-79150000D03*
X225445000Y-78350000D03*
D19*
X226345000Y-77250000D03*
X227145000Y-77250000D03*
X227945000Y-77250000D03*
X228745000Y-77250000D03*
X229545000Y-77250000D03*
X230345000Y-77250000D03*
X231145000Y-77250000D03*
X231945000Y-77250000D03*
X232745000Y-77250000D03*
X233545000Y-77250000D03*
X234345000Y-77250000D03*
%TD*%
D20*
%TO.C,R16*%
X224287500Y-124576555D03*
X224287500Y-122926555D03*
%TD*%
D21*
%TO.C,HV+2*%
X188823845Y-139177500D03*
X190398845Y-139177500D03*
%TD*%
D22*
%TO.C,D12*%
X232620000Y-91570000D03*
X232620000Y-98570000D03*
%TD*%
D20*
%TO.C,R31*%
X220037500Y-109881555D03*
X220037500Y-111531555D03*
%TD*%
D10*
%TO.C,TP42*%
X234530000Y-136920000D03*
%TD*%
D23*
%TO.C,Q1*%
X224622500Y-119347555D03*
X224622500Y-119997555D03*
X224622500Y-120647555D03*
X224622500Y-121297555D03*
D24*
X226562500Y-120322555D03*
%TD*%
D25*
%TO.C,DEBUG_2*%
X167651200Y-116199800D03*
X169226200Y-116199800D03*
%TD*%
D26*
%TO.C,D27*%
X186891100Y-87210510D03*
X184091100Y-87210510D03*
%TD*%
D25*
%TO.C,OverTemp1*%
X167663200Y-107157400D03*
X169238200Y-107157400D03*
%TD*%
D20*
%TO.C,R11*%
X225290000Y-72305000D03*
X225290000Y-73955000D03*
%TD*%
D27*
%TO.C,C1*%
X218167500Y-116051555D03*
X218167500Y-117601555D03*
%TD*%
D25*
%TO.C,OverV1*%
X167637900Y-102737800D03*
X169212900Y-102737800D03*
%TD*%
D10*
%TO.C,TP1*%
X165510000Y-77240000D03*
%TD*%
%TO.C,TP10*%
X163620000Y-126750000D03*
%TD*%
D28*
%TO.C,Q5*%
X176327345Y-142191000D03*
X178602345Y-141241000D03*
X176327345Y-140291000D03*
%TD*%
D20*
%TO.C,R17*%
X222697500Y-124621555D03*
X222697500Y-122971555D03*
%TD*%
D29*
%TO.C,C4*%
X226257500Y-99390000D03*
X227982500Y-99390000D03*
%TD*%
D20*
%TO.C,R1*%
X225727500Y-112431555D03*
X225727500Y-114081555D03*
%TD*%
D30*
%TO.C,R51*%
X217800000Y-104975000D03*
X216150000Y-104975000D03*
%TD*%
%TO.C,R53*%
X172247600Y-108630600D03*
X170597600Y-108630600D03*
%TD*%
D20*
%TO.C,R20*%
X217931345Y-142282500D03*
X217931345Y-140632500D03*
%TD*%
D31*
%TO.C,U6*%
X197518845Y-135062500D03*
X197518845Y-136332500D03*
X191143845Y-136332500D03*
X191143845Y-135062500D03*
%TD*%
D32*
%TO.C,C33*%
X169096500Y-79781410D03*
X169096500Y-77706410D03*
%TD*%
D30*
%TO.C,R57*%
X172277000Y-113202600D03*
X170627000Y-113202600D03*
%TD*%
%TO.C,R42*%
X172247600Y-111577000D03*
X170597600Y-111577000D03*
%TD*%
D20*
%TO.C,R37*%
X190801345Y-142292500D03*
X190801345Y-140642500D03*
%TD*%
%TO.C,R40*%
X202981345Y-142272500D03*
X202981345Y-140622500D03*
%TD*%
D25*
%TO.C,Heart1*%
X167637900Y-111577000D03*
X169212900Y-111577000D03*
%TD*%
D33*
%TO.C,C7*%
X215855000Y-70490000D03*
X215855000Y-68590000D03*
%TD*%
D34*
%TO.C,R7*%
X205120000Y-70185000D03*
X205120000Y-68535000D03*
%TD*%
D10*
%TO.C,TP6*%
X163620000Y-133890000D03*
%TD*%
D35*
%TO.C,C2*%
X218122500Y-119646555D03*
X219672500Y-119646555D03*
%TD*%
D30*
%TO.C,R59*%
X172260900Y-116174400D03*
X170610900Y-116174400D03*
%TD*%
D10*
%TO.C,TP34*%
X219476967Y-138973266D03*
%TD*%
D36*
%TO.C,C23*%
X202783845Y-134717500D03*
X202783845Y-136267500D03*
%TD*%
D10*
%TO.C,TP29*%
X165375000Y-64775000D03*
%TD*%
D30*
%TO.C,R60*%
X172251700Y-117673000D03*
X170601700Y-117673000D03*
%TD*%
%TO.C,R49*%
X172259800Y-105684200D03*
X170609800Y-105684200D03*
%TD*%
%TO.C,R58*%
X172260900Y-114701200D03*
X170610900Y-114701200D03*
%TD*%
D10*
%TO.C,TP5*%
X163620000Y-130320000D03*
%TD*%
D37*
%TO.C,D7*%
X227450000Y-115270543D03*
X227450000Y-113020543D03*
%TD*%
D38*
%TO.C,R45*%
X195476345Y-139357500D03*
X193826345Y-139357500D03*
%TD*%
D10*
%TO.C,TP40*%
X234552416Y-139442003D03*
%TD*%
D20*
%TO.C,R71*%
X179004845Y-146421000D03*
X179004845Y-144771000D03*
%TD*%
D34*
%TO.C,R54*%
X183108845Y-134225000D03*
X183108845Y-135875000D03*
%TD*%
D10*
%TO.C,TP31*%
X168960000Y-129060000D03*
%TD*%
D39*
%TO.C,J13*%
X218850000Y-85875000D03*
X221390000Y-85875000D03*
X218850000Y-83335000D03*
X221390000Y-83335000D03*
X218850000Y-80795000D03*
X221390000Y-80795000D03*
X218850000Y-78255000D03*
X221390000Y-78255000D03*
X218850000Y-75715000D03*
X221390000Y-75715000D03*
%TD*%
D10*
%TO.C,TP32*%
X165370000Y-74930000D03*
%TD*%
D39*
%TO.C,J21*%
X177801500Y-60023910D03*
X172721500Y-57483910D03*
X172721500Y-60023910D03*
X175261500Y-57483910D03*
X175261500Y-60023910D03*
X177801500Y-57483910D03*
X180341500Y-57483910D03*
X180341500Y-60023910D03*
X182881500Y-57483910D03*
X182881500Y-60023910D03*
%TD*%
D10*
%TO.C,TP9*%
X206091345Y-138927500D03*
%TD*%
D36*
%TO.C,C16*%
X166914845Y-136486000D03*
X166914845Y-134936000D03*
%TD*%
D40*
%TO.C,Q11*%
X195850000Y-69937500D03*
X194900000Y-72212500D03*
X193950000Y-69937500D03*
%TD*%
D25*
%TO.C,DEBUG_5*%
X167651200Y-120619400D03*
X169226200Y-120619400D03*
%TD*%
D41*
%TO.C,D9*%
X212105000Y-137890000D03*
X214355000Y-137890000D03*
%TD*%
D21*
%TO.C,HV+4*%
X216142068Y-139247528D03*
X217717068Y-139247528D03*
%TD*%
D41*
%TO.C,D8*%
X198186345Y-138135000D03*
X200436345Y-138135000D03*
%TD*%
D10*
%TO.C,24V_TP1*%
X216250000Y-61220000D03*
%TD*%
D42*
%TO.C,J5*%
X189221500Y-60183910D03*
D43*
X191721500Y-60183910D03*
X194221500Y-60183910D03*
X196721500Y-60183910D03*
X199221500Y-60183910D03*
X201721500Y-60183910D03*
X189221500Y-57683910D03*
X191721500Y-57683910D03*
X194221500Y-57683910D03*
X196721500Y-57683910D03*
X199221500Y-57683910D03*
X201721500Y-57683910D03*
%TD*%
D44*
%TO.C,J7*%
X206225000Y-57775000D03*
D45*
X208725000Y-57775000D03*
X211225000Y-57775000D03*
X213725000Y-57775000D03*
%TD*%
D38*
%TO.C,R39*%
X209456345Y-139307500D03*
X207806345Y-139307500D03*
%TD*%
D46*
%TO.C,C35*%
X188460000Y-113227500D03*
X188460000Y-114952500D03*
%TD*%
D47*
%TO.C,C31*%
X169198100Y-86002610D03*
X169198100Y-88077610D03*
%TD*%
D23*
%TO.C,Q3*%
X224577500Y-108805555D03*
X224577500Y-109455555D03*
X224577500Y-110105555D03*
X224577500Y-110755555D03*
D24*
X226517500Y-109780555D03*
%TD*%
D48*
%TO.C,Q7*%
X183046345Y-137420000D03*
X180771345Y-138370000D03*
X183046345Y-139320000D03*
%TD*%
D49*
%TO.C,D11*%
X205160000Y-65605000D03*
X205160000Y-67180000D03*
%TD*%
D25*
%TO.C,Chrging1*%
X167637900Y-108630600D03*
X169212900Y-108630600D03*
%TD*%
%TO.C,AmpIn1*%
X167651200Y-123616600D03*
X169226200Y-123616600D03*
%TD*%
D50*
%TO.C,Z2*%
X212905000Y-105550000D03*
X208855000Y-105550000D03*
%TD*%
D20*
%TO.C,R13*%
X223147500Y-109851555D03*
X223147500Y-111501555D03*
%TD*%
D10*
%TO.C,TP44*%
X160920000Y-135500000D03*
%TD*%
D20*
%TO.C,R10*%
X226790000Y-72310000D03*
X226790000Y-73960000D03*
%TD*%
D25*
%TO.C,VTempIN1*%
X167637900Y-110103800D03*
X169212900Y-110103800D03*
%TD*%
%TO.C,D3*%
X220740000Y-66895000D03*
X222315000Y-66895000D03*
%TD*%
D38*
%TO.C,R44*%
X171589845Y-139351000D03*
X173239845Y-139351000D03*
%TD*%
D28*
%TO.C,Q4*%
X212353845Y-142087500D03*
X214628845Y-141137500D03*
X212353845Y-140187500D03*
%TD*%
D51*
%TO.C,D1*%
X220700000Y-70305000D03*
X224000000Y-70305000D03*
%TD*%
D38*
%TO.C,R66*%
X194100000Y-68275000D03*
X195750000Y-68275000D03*
%TD*%
D20*
%TO.C,R21*%
X216471345Y-142292500D03*
X216471345Y-140642500D03*
%TD*%
D21*
%TO.C,HV+3*%
X202803845Y-139107500D03*
X204378845Y-139107500D03*
%TD*%
D10*
%TO.C,TP45*%
X169564845Y-133091000D03*
%TD*%
D25*
%TO.C,OverAmp1*%
X167637900Y-105684200D03*
X169212900Y-105684200D03*
%TD*%
D30*
%TO.C,R56*%
X172260900Y-123616600D03*
X170610900Y-123616600D03*
%TD*%
D44*
%TO.C,J6*%
X218221500Y-57703910D03*
D45*
X220721500Y-57703910D03*
X223221500Y-57703910D03*
X225721500Y-57703910D03*
%TD*%
D36*
%TO.C,C5*%
X216598845Y-134907500D03*
X216598845Y-136457500D03*
%TD*%
D28*
%TO.C,Q9*%
X225793845Y-142205000D03*
X228068845Y-141255000D03*
X225793845Y-140305000D03*
%TD*%
D30*
%TO.C,R9*%
X219300000Y-67270000D03*
X217650000Y-67270000D03*
%TD*%
D27*
%TO.C,C17*%
X199341345Y-136532500D03*
X199341345Y-134982500D03*
%TD*%
D30*
%TO.C,R25*%
X216160000Y-81625000D03*
X214510000Y-81625000D03*
%TD*%
D27*
%TO.C,C6*%
X203640000Y-73910000D03*
X203640000Y-75460000D03*
%TD*%
D25*
%TO.C,DEBUG_4*%
X167651200Y-119146200D03*
X169226200Y-119146200D03*
%TD*%
D11*
%TO.C,J3*%
X233678527Y-102667555D03*
D12*
X233678527Y-105167555D03*
%TD*%
D45*
%TO.C,J9*%
X168554845Y-145191000D03*
X171054845Y-145191000D03*
X173554845Y-145191000D03*
D52*
X176054845Y-145191000D03*
%TD*%
D25*
%TO.C,DEBUG_3*%
X167651200Y-117673000D03*
X169226200Y-117673000D03*
%TD*%
D53*
%TO.C,IC1*%
X218140000Y-101510000D03*
X218140000Y-102160000D03*
X218140000Y-102810000D03*
X218140000Y-103460000D03*
X220640000Y-103460000D03*
X220640000Y-102810000D03*
X220640000Y-102160000D03*
X220640000Y-101510000D03*
%TD*%
D30*
%TO.C,R27*%
X216180000Y-89245000D03*
X214530000Y-89245000D03*
%TD*%
D20*
%TO.C,R70*%
X181238845Y-135965000D03*
X181238845Y-134315000D03*
%TD*%
D10*
%TO.C,TP2*%
X202650000Y-83075000D03*
%TD*%
%TO.C,TP7*%
X169914845Y-138961000D03*
%TD*%
D30*
%TO.C,R61*%
X172260900Y-119171600D03*
X170610900Y-119171600D03*
%TD*%
D34*
%TO.C,R34*%
X200821345Y-134927500D03*
X200821345Y-136577500D03*
%TD*%
D23*
%TO.C,Q12*%
X223805000Y-102105000D03*
X223805000Y-102755000D03*
X223805000Y-103405000D03*
X223805000Y-104055000D03*
D24*
X225745000Y-103080000D03*
%TD*%
D30*
%TO.C,R48*%
X172247600Y-104211000D03*
X170597600Y-104211000D03*
%TD*%
D54*
%TO.C,U3*%
X219907500Y-114411555D03*
X219907500Y-115061555D03*
X219907500Y-115711555D03*
X219907500Y-116361555D03*
D55*
X220832500Y-117286555D03*
X221482500Y-117286555D03*
X222132500Y-117286555D03*
X222782500Y-117286555D03*
D54*
X223707500Y-116361555D03*
X223707500Y-115711555D03*
X223707500Y-115061555D03*
X223707500Y-114411555D03*
D55*
X222782500Y-113486555D03*
X222132500Y-113486555D03*
X221482500Y-113486555D03*
X220832500Y-113486555D03*
D56*
X221807500Y-115386555D03*
%TD*%
D57*
%TO.C,U2*%
X205200000Y-76745000D03*
D58*
X205850000Y-76745000D03*
D57*
X206500000Y-76745000D03*
X207150000Y-76745000D03*
X207150000Y-73875000D03*
X206500000Y-73875000D03*
X205850000Y-73875000D03*
X205200000Y-73875000D03*
D59*
X206175000Y-75310000D03*
%TD*%
D60*
%TO.C,SW2*%
X207310000Y-83675000D03*
X209610000Y-85425000D03*
X207310000Y-87175000D03*
%TD*%
D37*
%TO.C,D4*%
X227542500Y-123531555D03*
X227542500Y-125781555D03*
%TD*%
D61*
%TO.C,J17*%
X162040000Y-74530000D03*
D12*
X162040000Y-72030000D03*
X162040000Y-69530000D03*
X162040000Y-67030000D03*
%TD*%
D25*
%TO.C,DEBUG_0*%
X167651200Y-113202600D03*
X169226200Y-113202600D03*
%TD*%
D20*
%TO.C,R33*%
X168464845Y-140636000D03*
X168464845Y-142286000D03*
%TD*%
D10*
%TO.C,TP41*%
X229900000Y-137890000D03*
%TD*%
D45*
%TO.C,J4*%
X218021345Y-145197500D03*
X220521345Y-145197500D03*
X223021345Y-145197500D03*
D52*
X225521345Y-145197500D03*
%TD*%
D62*
%TO.C,U11*%
X190386500Y-85203910D03*
X190386500Y-83933910D03*
X190386500Y-82663910D03*
X190386500Y-81393910D03*
X184964500Y-81393910D03*
X184964500Y-82663910D03*
X184964500Y-83933910D03*
X184964500Y-85203910D03*
%TD*%
D10*
%TO.C,TP50*%
X201050000Y-64210000D03*
%TD*%
D31*
%TO.C,U7*%
X211051345Y-134867500D03*
X211051345Y-136137500D03*
X204676345Y-136137500D03*
X204676345Y-134867500D03*
%TD*%
D38*
%TO.C,R18*%
X219155000Y-104985000D03*
X220805000Y-104985000D03*
%TD*%
D63*
%TO.C,C12*%
X205295000Y-72455000D03*
X203745000Y-72455000D03*
%TD*%
D64*
%TO.C,D2*%
X224660000Y-66665000D03*
D65*
X224660000Y-68365000D03*
X226660000Y-68365000D03*
X226660000Y-66465000D03*
%TD*%
D25*
%TO.C,LV3*%
X211492500Y-84205000D03*
X213067500Y-84205000D03*
%TD*%
D66*
%TO.C,U10*%
X177015000Y-113355000D03*
X177015000Y-114625000D03*
X177015000Y-115895000D03*
X177015000Y-117165000D03*
X177015000Y-118435000D03*
X177015000Y-119705000D03*
X177015000Y-120975000D03*
X177015000Y-122245000D03*
X186465000Y-122245000D03*
X186465000Y-120975000D03*
X186465000Y-119705000D03*
X186465000Y-118435000D03*
X186465000Y-117165000D03*
X186465000Y-115895000D03*
X186465000Y-114625000D03*
X186465000Y-113355000D03*
%TD*%
D38*
%TO.C,R50*%
X186315000Y-130835000D03*
X184665000Y-130835000D03*
%TD*%
%TO.C,R43*%
X186303845Y-132320000D03*
X184653845Y-132320000D03*
%TD*%
D10*
%TO.C,TP47*%
X203345000Y-69810000D03*
%TD*%
%TO.C,TP38*%
X230030000Y-140430000D03*
%TD*%
D67*
%TO.C,C25*%
X188430000Y-118422500D03*
X188430000Y-116697500D03*
%TD*%
D38*
%TO.C,R22*%
X208415000Y-81565000D03*
X210065000Y-81565000D03*
%TD*%
D68*
%TO.C,C11*%
X221410000Y-65185000D03*
X223310000Y-65185000D03*
%TD*%
D29*
%TO.C,C27*%
X192248600Y-83857710D03*
X193973600Y-83857710D03*
%TD*%
D30*
%TO.C,R24*%
X216175000Y-86755000D03*
X214525000Y-86755000D03*
%TD*%
D46*
%TO.C,C34*%
X188445600Y-101291100D03*
X188445600Y-103016100D03*
%TD*%
D25*
%TO.C,DEBUG_1*%
X167647100Y-114701200D03*
X169222100Y-114701200D03*
%TD*%
D10*
%TO.C,TP39*%
X161260000Y-137610000D03*
%TD*%
D27*
%TO.C,C14*%
X226588845Y-136467500D03*
X226588845Y-134917500D03*
%TD*%
D38*
%TO.C,R28*%
X219165000Y-107250000D03*
X220815000Y-107250000D03*
%TD*%
D69*
%TO.C,J18*%
X162145000Y-84000000D03*
D12*
X162145000Y-81500000D03*
X162145000Y-79000000D03*
%TD*%
D36*
%TO.C,C20*%
X214970000Y-103030000D03*
X214970000Y-101480000D03*
%TD*%
D30*
%TO.C,R55*%
X172247600Y-110103800D03*
X170597600Y-110103800D03*
%TD*%
D20*
%TO.C,R32*%
X167004845Y-140636000D03*
X167004845Y-142286000D03*
%TD*%
D10*
%TO.C,TP3*%
X201450000Y-85075000D03*
%TD*%
D29*
%TO.C,C28*%
X190476200Y-79708910D03*
X192201200Y-79708910D03*
%TD*%
D34*
%TO.C,R19*%
X228050772Y-134867085D03*
X228050772Y-136517085D03*
%TD*%
D70*
%TO.C,J2*%
X230065000Y-72745000D03*
X230065000Y-71945000D03*
D71*
X230065000Y-70795000D03*
X230065000Y-69795000D03*
X230065000Y-69295000D03*
X230065000Y-68295000D03*
D70*
X230065000Y-67145000D03*
X230065000Y-66345000D03*
X230065000Y-66345000D03*
X230065000Y-67145000D03*
D71*
X230065000Y-67795000D03*
X230065000Y-68795000D03*
X230065000Y-70295000D03*
X230065000Y-71295000D03*
D70*
X230065000Y-71945000D03*
X230065000Y-72745000D03*
D72*
X230640000Y-73865000D03*
D73*
X234820000Y-73865000D03*
D72*
X230640000Y-65225000D03*
D73*
X234820000Y-65225000D03*
%TD*%
D20*
%TO.C,R35*%
X218527500Y-109861555D03*
X218527500Y-111511555D03*
%TD*%
D41*
%TO.C,D5*%
X225408489Y-138090004D03*
X227658489Y-138090004D03*
%TD*%
%TO.C,D6*%
X175719827Y-138085013D03*
X177969827Y-138085013D03*
%TD*%
D25*
%TO.C,LV1*%
X211602500Y-86745000D03*
X213177500Y-86745000D03*
%TD*%
D30*
%TO.C,R26*%
X216065000Y-84215000D03*
X214415000Y-84215000D03*
%TD*%
%TO.C,R52*%
X172235400Y-107157400D03*
X170585400Y-107157400D03*
%TD*%
D38*
%TO.C,R3*%
X230719102Y-125845757D03*
X229069102Y-125845757D03*
%TD*%
D28*
%TO.C,Q10*%
X184861345Y-135927500D03*
X187136345Y-134977500D03*
X184861345Y-134027500D03*
%TD*%
D12*
%TO.C,Fan1*%
X233629102Y-124455757D03*
X233629102Y-121955757D03*
D74*
X233629102Y-119455757D03*
%TD*%
%TO.C,Fan2*%
X233723301Y-109991156D03*
D12*
X233723301Y-112491156D03*
X233723301Y-114991156D03*
%TD*%
D30*
%TO.C,R62*%
X172260900Y-120670200D03*
X170610900Y-120670200D03*
%TD*%
D25*
%TO.C,LowV1*%
X167637900Y-104211000D03*
X169212900Y-104211000D03*
%TD*%
D27*
%TO.C,C15*%
X176894845Y-136476000D03*
X176894845Y-134926000D03*
%TD*%
D30*
%TO.C,R47*%
X172247600Y-102737800D03*
X170597600Y-102737800D03*
%TD*%
D20*
%TO.C,R41*%
X204450000Y-142257500D03*
X204450000Y-140607500D03*
%TD*%
D35*
%TO.C,C9*%
X232805000Y-75625000D03*
X234355000Y-75625000D03*
%TD*%
D25*
%TO.C,DEBUG_6*%
X167651200Y-122143400D03*
X169226200Y-122143400D03*
%TD*%
D30*
%TO.C,R23*%
X210225000Y-89215000D03*
X208575000Y-89215000D03*
%TD*%
D10*
%TO.C,LVPRW_TP2*%
X228150000Y-91050000D03*
%TD*%
%TO.C,TP33*%
X163890000Y-139840000D03*
%TD*%
D38*
%TO.C,R4*%
X229173301Y-116421156D03*
X230823301Y-116421156D03*
%TD*%
D36*
%TO.C,C18*%
X206900000Y-81615000D03*
X206900000Y-80065000D03*
%TD*%
D45*
%TO.C,J10*%
X190901345Y-145207500D03*
X193401345Y-145207500D03*
X195901345Y-145207500D03*
D52*
X198401345Y-145207500D03*
%TD*%
D30*
%TO.C,R46*%
X172247600Y-101264600D03*
X170597600Y-101264600D03*
%TD*%
D75*
%TO.C,C26*%
X192276800Y-85635710D03*
X194351800Y-85635710D03*
%TD*%
D38*
%TO.C,R6*%
X220695000Y-68375000D03*
X222345000Y-68375000D03*
%TD*%
D76*
%TO.C,C21*%
X224798527Y-106737555D03*
X222898527Y-106737555D03*
%TD*%
D10*
%TO.C,TP48*%
X218245000Y-65410000D03*
%TD*%
D20*
%TO.C,R12*%
X225832500Y-124551555D03*
X225832500Y-122901555D03*
%TD*%
D77*
%TO.C,L1*%
X176506500Y-87243910D03*
X176506500Y-78743910D03*
%TD*%
D78*
%TO.C,C10*%
X215875000Y-65170000D03*
X215875000Y-67070000D03*
%TD*%
D34*
%TO.C,R8*%
X208660000Y-76175000D03*
X208660000Y-74525000D03*
%TD*%
D79*
%TO.C,SW1*%
X211110000Y-79070000D03*
X211110000Y-73320000D03*
X215110000Y-79070000D03*
X215110000Y-73320000D03*
%TD*%
D30*
%TO.C,R63*%
X172260900Y-122143400D03*
X170610900Y-122143400D03*
%TD*%
D27*
%TO.C,C3*%
X216500000Y-101460000D03*
X216500000Y-103010000D03*
%TD*%
D21*
%TO.C,HV+1*%
X168202345Y-138921000D03*
X166627345Y-138921000D03*
%TD*%
D25*
%TO.C,LV2*%
X211587500Y-81625000D03*
X213162500Y-81625000D03*
%TD*%
D31*
%TO.C,U4*%
X224766345Y-135057500D03*
X224766345Y-136327500D03*
X218391345Y-136327500D03*
X218391345Y-135057500D03*
%TD*%
D30*
%TO.C,R69*%
X181513845Y-131930000D03*
X183163845Y-131930000D03*
%TD*%
D34*
%TO.C,R30*%
X178354845Y-134851000D03*
X178354845Y-136501000D03*
%TD*%
D20*
%TO.C,R36*%
X189331345Y-142302500D03*
X189331345Y-140652500D03*
%TD*%
D35*
%TO.C,C8*%
X206740000Y-72265000D03*
X208290000Y-72265000D03*
%TD*%
D25*
%TO.C,LV4*%
X211612500Y-89225000D03*
X213187500Y-89225000D03*
%TD*%
D10*
%TO.C,TP36*%
X192141345Y-138967500D03*
%TD*%
D80*
%TO.C,U8*%
X213595000Y-70140000D03*
X213595000Y-67840000D03*
D81*
X207295000Y-67840000D03*
D80*
X213595000Y-65540000D03*
%TD*%
D25*
%TO.C,Fault1*%
X167637900Y-101264600D03*
X169212900Y-101264600D03*
%TD*%
D27*
%TO.C,C22*%
X212863845Y-136317500D03*
X212863845Y-134767500D03*
%TD*%
D20*
%TO.C,R2*%
X221577500Y-109851555D03*
X221577500Y-111501555D03*
%TD*%
D28*
%TO.C,Q8*%
X184891345Y-139337500D03*
X187166345Y-138387500D03*
X184891345Y-137437500D03*
%TD*%
D45*
%TO.C,J11*%
X204521345Y-145197500D03*
X207021345Y-145197500D03*
X209521345Y-145197500D03*
D52*
X212021345Y-145197500D03*
%TD*%
D36*
%TO.C,C19*%
X189351345Y-134922500D03*
X189351345Y-136472500D03*
%TD*%
D82*
%TO.C,R64*%
X186964000Y-78063910D03*
X188789000Y-78063910D03*
%TD*%
D28*
%TO.C,Q6*%
X198661345Y-142207500D03*
X200936345Y-141257500D03*
X198661345Y-140307500D03*
%TD*%
D10*
%TO.C,TP49*%
X200630000Y-71770000D03*
%TD*%
D83*
%TO.C,F1*%
X166050000Y-88190000D03*
X162130000Y-88190000D03*
%TD*%
D32*
%TO.C,C32*%
X169147300Y-84150210D03*
X169147300Y-82075210D03*
%TD*%
D34*
%TO.C,R38*%
X214343845Y-134657500D03*
X214343845Y-136307500D03*
%TD*%
D20*
%TO.C,R5*%
X217017500Y-109881555D03*
X217017500Y-111531555D03*
%TD*%
D45*
%TO.C,J15*%
X182768845Y-145195000D03*
D84*
X185268845Y-145195000D03*
%TD*%
D82*
%TO.C,R65*%
X192401800Y-81216110D03*
X194226800Y-81216110D03*
%TD*%
D38*
%TO.C,R29*%
X222821345Y-139237500D03*
X221171345Y-139237500D03*
%TD*%
D85*
%TO.C,C30*%
X190417600Y-86804110D03*
X188692600Y-86804110D03*
%TD*%
D86*
%TO.C,J8*%
X161880000Y-96190000D03*
D12*
X161880000Y-93690000D03*
%TD*%
D31*
%TO.C,U5*%
X168727345Y-135036000D03*
X168727345Y-136306000D03*
X175102345Y-136306000D03*
X175102345Y-135036000D03*
%TD*%
D33*
%TO.C,C13*%
X218960000Y-70745000D03*
X218960000Y-68845000D03*
%TD*%
D85*
%TO.C,C29*%
X188773700Y-79668910D03*
X187048700Y-79668910D03*
%TD*%
D67*
%TO.C,C24*%
X188445600Y-106368900D03*
X188445600Y-104643900D03*
%TD*%
D66*
%TO.C,U9*%
X177038500Y-101467800D03*
X177038500Y-102737800D03*
X177038500Y-104007800D03*
X177038500Y-105277800D03*
X177038500Y-106547800D03*
X177038500Y-107817800D03*
X177038500Y-109087800D03*
X177038500Y-110357800D03*
X186488500Y-110357800D03*
X186488500Y-109087800D03*
X186488500Y-107817800D03*
X186488500Y-106547800D03*
X186488500Y-105277800D03*
X186488500Y-104007800D03*
X186488500Y-102737800D03*
X186488500Y-101467800D03*
%TD*%
M02*
